#N canvas -9 -9 1920 1026 10;
#X msg 31 -104 close;
#X msg 20 -131 devices;
#X floatatom 80 -123 5 0 0 0 - - - 0;
#X msg 80 -104 open \$1;
#X obj 20 -17 s;
#X floatatom 20 63 5 0 0 0 - - - 0;
#X floatatom 60 63 5 0 0 0 - - - 0;
#X floatatom 101 63 5 0 0 0 - - - 0;
#X obj 20 39 unpack f f f;
#X obj 150 39 unpack f f f;
#X obj 150 62 tgl 15 0 empty empty empty 17 7 0 10 #fcfcfc #000000
#000000 0 1;
#X obj 190 62 tgl 15 0 empty empty empty 17 7 0 10 #fcfcfc #000000
#000000 0 1;
#X obj 231 62 tgl 15 0 empty empty empty 17 7 0 10 #fcfcfc #000000
#000000 0 1;
#X obj 150 15 r Digital_values:;
#X obj 20 -39 serial_print any;
#X obj 20 15 r Analog_values:;
#X obj 775 -70 unpack s f;
#X obj 834 -24 tgl 30 0 empty empty empty 17 7 0 10 #fcfcfc #000000
#000000 0 1;
#X text 775 -125 Data from digital sensors;
#X obj 297 -125 cnv 15 250 370 empty empty empty 20 12 0 14 #dcdcdc
#404040 0;
#X floatatom 314 24 5 0 0 0 - - - 0;
#X obj 314 47 s resolution;
#X msg 336 -2 4095;
#X msg 314 -31 1023;
#X obj 314 -58 loadbang;
#X text 375 -33 10-bit Arduino resolution;
#X text 375 -3 12-bit Teensy resolution;
#X text 313 -104 Configuration;
#X obj 20 -62 comport 1 115200;
#X obj 775 -104 r led_state;
#X msg 184 -115 3;
#X msg 15 127 \; pd dsp 1;
#X msg 15 186 \; pd dsp 0;
#X obj 15 286 dac~ 1 2;
#X obj 15 253 receive~ to_dac;
#X text 94 123 <-Click to start DSP;
#X text 94 185 <-Click to stop DSP;
#X obj 712 83 send~ to_dac;
#X obj 673 -84 line~;
#X obj 621 -55 *~;
#X obj 752 4 line~;
#X obj 713 40 *~;
#X obj 752 -26 pack 0 500;
#X obj 576 -119 osc~ 440;
#X obj 879 -21 s _led_state;
#X msg 673 -121 50;
#X connect 0 0 28 0;
#X connect 1 0 28 0;
#X connect 2 0 3 0;
#X connect 3 0 28 0;
#X connect 8 0 5 0;
#X connect 8 1 6 0;
#X connect 8 2 7 0;
#X connect 9 0 10 0;
#X connect 9 1 11 0;
#X connect 9 2 12 0;
#X connect 13 0 9 0;
#X connect 14 0 4 0;
#X connect 14 1 4 1;
#X connect 15 0 8 0;
#X connect 16 1 17 0;
#X connect 16 1 42 0;
#X connect 16 1 44 0;
#X connect 20 0 21 0;
#X connect 22 0 20 0;
#X connect 23 0 20 0;
#X connect 24 0 23 0;
#X connect 28 0 14 0;
#X connect 29 0 16 0;
#X connect 30 0 2 0;
#X connect 34 0 33 0;
#X connect 34 0 33 1;
#X connect 38 0 39 1;
#X connect 39 0 41 0;
#X connect 40 0 41 1;
#X connect 41 0 37 0;
#X connect 42 0 40 0;
#X connect 43 0 39 0;
#X connect 45 0 38 0;
