#N canvas 66 106 1620 747 10;
#X text 96 18 <-Click to start;
#X text 96 80 <-Click to stop;
#X msg 17 22 \; pd dsp 1;
#X msg 17 81 \; pd dsp 0;
#X floatatom 455 200 5 0 0 0 - - - 0;
#X obj 455 62 vsl 15 128 0 1000 0 0 empty empty empty 0 -9 0 10 #fcfcfc #000000 #000000 0 1;
#X floatatom 748 202 5 0 0 0 - - - 0;
#X obj 748 65 vsl 15 128 0 1000 0 0 empty empty empty 0 -9 0 10 #fcfcfc #000000 #000000 0 1;
#X floatatom 878 202 5 0 0 0 - - - 0;
#X obj 878 65 vsl 15 128 0 1000 0 0 empty empty empty 0 -9 0 10 #fcfcfc #000000 #000000 0 1;
#X floatatom 1013 201 5 0 0 0 - - - 0;
#X obj 1013 63 vsl 15 128 0 1000 0 0 empty empty empty 0 -9 0 10 #fcfcfc #000000 #000000 0 1;
#X msg 455 39 300;
#X msg 748 39 100;
#X msg 878 39 150;
#X msg 1012 39 100;
#X text 452 16 Attack;
#X text 744 15 Decay;
#X text 876 15 Sustain;
#X text 1008 15 Release;
#X floatatom 393 525 5 0 0 0 - - - 0;
#X obj 397 39 loadbang;
#X obj 689 39 loadbang;
#X obj 818 38 loadbang;
#X obj 957 38 loadbang;
#X floatatom 306 528 5 0 0 0 - - - 0;
#X obj 306 64 vsl 15 128 0 200 0 0 empty empty empty 0 -9 0 10 #fcfcfc #000000 #000000 0 1;
#X obj 248 41 loadbang;
#X obj 393 500 r attack;
#X obj 455 250 s attack;
#X obj 577 501 r decay;
#X obj 748 246 s decay;
#X floatatom 306 224 5 0 0 0 - - - 0;
#X obj 306 250 s peak_level;
#X obj 306 201 / 100;
#X msg 306 41 100;
#X text 303 18 Peak level;
#X obj 306 500 r peak_level;
#X obj 510 290 r peak_level;
#X obj 606 325 *;
#X obj 600 290 t b f;
#X obj 600 62 vsl 15 128 0 100 0 0 empty empty empty 0 -9 0 10 #fcfcfc #000000 #000000 0 1;
#X obj 542 39 loadbang;
#X floatatom 600 222 5 0 0 0 - - - 0;
#X obj 600 199 / 100;
#X text 597 16 Sustain level;
#X msg 600 39 70;
#X obj 878 249 s sustain;
#X obj 1013 250 s release;
#X obj 21 251 bng 30 250 50 0 empty empty empty 17 7 0 10 #fcfcfc #000000 #000000;
#X obj 21 139 tgl 30 0 empty empty empty 17 7 0 10 #fcfcc4 #000000 #000000 0 1;
#X text 58 142 metro on/off;
#X floatatom 72 202 5 0 0 0 - - - 0;
#X msg 72 174 3000;
#X obj 21 224 metro 2000;
#X msg 122 174 2000;
#X obj 21 345 s start_note;
#X obj 146 500 r start_note;
#X obj 444 700 vline~;
#X msg 445 644 \$2 \$3 \, \$4 \$5 \$3 \, 0 \$6 \$7;
#X obj 146 530 bng 15 250 50 0 empty empty empty 17 7 0 10 #fcfcfc #000000 #000000;
#X obj 606 353 s sustain_level;
#X text 640 325 Percentage of peak level;
#X obj 463 501 r sustain_level;
#X floatatom 463 530 5 0 0 0 - - - 0;
#X floatatom 576 529 4 0 0 0 - - - 0;
#X obj 446 606 pack f f f f f f f;
#X obj 846 453 t b f;
#X obj 734 475 r sustain;
#X floatatom 734 501 5 0 0 0 - - - 0;
#X floatatom 647 529 5 0 0 0 - - - 0;
#X obj 647 501 r release;
#X obj 783 502 t b f;
#X obj 803 475 +;
#X obj 802 428 r attack;
#X obj 862 405 r decay;
#X floatatom 802 452 5 0 0 0 - - - 0;
#X floatatom 864 428 5 0 0 0 - - - 0;
#X floatatom 734 555 5 0 0 0 - - - 0;
#X obj 734 528 +;
#X obj 411 898 dac~;
#X text 613 627 peak level \, attack sustain level \, decay \, delay (=attack time) release level (=0) release \, delay (=attack + decay + sustain), f 62;
#X text 729 583 compute delay for the release \, i.e. sum of attack \, decay \, sustain, f 35;
#X obj 269 819 vu 19 200 empty empty -1 -10 0 12 #404040 #000000 1 0;
#X obj 282 786 pvu~;
#X obj 585 934 writesf~;
#X msg 602 910 stop;
#X obj 585 793 r start recording;
#X obj 602 876 r stop recording;
#X msg 585 838 open example.wav \, start;
#X obj 1345 657 s stop recording;
#X floatatom 1310 523 4 0 0 0 - - - 0;
#X obj 1172 594 bng 30 250 50 0 empty empty empty 17 7 0 10 #fcfcfc #000000 #000000;
#X obj 1343 587 bng 30 250 50 0 empty empty empty 17 7 0 10 #fcfcfc #000000 #000000;
#X obj 1399 587 bng 30 250 50 0 empty empty empty 17 7 0 10 #fcfcfc #000000 #000000;
#X obj 1309 550 select 0 1;
#X obj 1310 483 line;
#X obj 1188 651 s start recording;
#X text 604 961 record audio, f 13;
#X text 1406 410 press to record audio, f 22;
#X text 1407 436 0 = start recording 1 = stop recording else = control bang \, can be deleted line ramp from 0 to 1 in tot time change second value to change sound duration, f 45;
#X obj 1078 645 s start_note;
#X msg 539 665 1 300 \, 0.7 100 300 \, 0 100 550;
#X obj 420 756 *~;
#X msg 1310 443 1 650;
#X obj 275 645 osc~ 264;
#X connect 4 0 29 0;
#X connect 5 0 4 0;
#X connect 6 0 31 0;
#X connect 7 0 6 0;
#X connect 8 0 47 0;
#X connect 9 0 8 0;
#X connect 10 0 48 0;
#X connect 11 0 10 0;
#X connect 12 0 5 0;
#X connect 13 0 7 0;
#X connect 14 0 9 0;
#X connect 15 0 11 0;
#X connect 20 0 66 2;
#X connect 21 0 12 0;
#X connect 22 0 13 0;
#X connect 23 0 14 0;
#X connect 24 0 15 0;
#X connect 25 0 66 1;
#X connect 26 0 34 0;
#X connect 27 0 35 0;
#X connect 28 0 20 0;
#X connect 30 0 65 0;
#X connect 32 0 33 0;
#X connect 34 0 32 0;
#X connect 35 0 26 0;
#X connect 37 0 25 0;
#X connect 38 0 39 0;
#X connect 39 0 61 0;
#X connect 40 0 39 0;
#X connect 40 1 39 1;
#X connect 41 0 44 0;
#X connect 42 0 46 0;
#X connect 43 0 40 0;
#X connect 44 0 43 0;
#X connect 46 0 41 0;
#X connect 49 0 56 0;
#X connect 50 0 54 0;
#X connect 52 0 54 1;
#X connect 53 0 52 0;
#X connect 54 0 49 0;
#X connect 55 0 52 0;
#X connect 57 0 60 0;
#X connect 58 0 103 1;
#X connect 59 0 58 0;
#X connect 60 0 66 0;
#X connect 63 0 64 0;
#X connect 64 0 66 3;
#X connect 65 0 66 4;
#X connect 66 0 59 0;
#X connect 67 0 73 0;
#X connect 67 1 73 1;
#X connect 68 0 69 0;
#X connect 69 0 79 0;
#X connect 70 0 66 5;
#X connect 71 0 70 0;
#X connect 72 0 79 0;
#X connect 72 1 79 1;
#X connect 73 0 72 0;
#X connect 74 0 76 0;
#X connect 75 0 77 0;
#X connect 76 0 73 0;
#X connect 77 0 67 0;
#X connect 79 0 66 6;
#X connect 79 0 78 0;
#X connect 84 0 83 1;
#X connect 86 0 85 0;
#X connect 87 0 89 0;
#X connect 88 0 86 0;
#X connect 89 0 85 0;
#X connect 91 0 95 0;
#X connect 92 0 101 0;
#X connect 92 0 97 0;
#X connect 93 0 90 0;
#X connect 95 0 92 0;
#X connect 95 1 93 0;
#X connect 95 2 94 0;
#X connect 96 0 91 0;
#X connect 102 0 58 0;
#X connect 103 0 80 0;
#X connect 103 0 80 1;
#X connect 103 0 84 0;
#X connect 103 0 85 0;
#X connect 104 0 96 0;
#X connect 105 0 103 0;
