#N canvas 1897 97 1920 966 12;
#X text 96 18 <-Click to start;
#X text 96 80 <-Click to stop;
#X msg 17 22 \; pd dsp 1;
#X msg 17 81 \; pd dsp 0;
#X obj 1227 874 dac~;
#X obj 1234 771 *~;
#X text 21 220 Every 650 perform next sound;
#X obj 20 246 cnv 19 600 500 empty empty empty 20 12 0 12 #ffe3c6 #404040 0;
#X obj 277 261 loadbang;
#X floatatom 277 330 5 0 0 0 - - - 0;
#X obj 184 355 metro;
#X obj 184 315 tgl 19 0 empty empty empty 0 -10 0 12 #fcfcfc #000000 #000000 0 1;
#X obj 113 356 sel 0;
#X obj 113 395 bng 19 250 50 0 empty empty empty 0 -10 0 12 #fcfcfc #000000 #000000;
#X obj 33 355 loadbang;
#X msg 113 432 -1;
#X obj 185 476 int 1;
#X obj 256 505 + 1;
#X obj 185 611 sel 1;
#X obj 185 652 bng 19 250 50 0 empty empty empty 0 -10 0 12 #fcfcfc #000000 #000000;
#X obj 185 688 s One;
#X obj 250 653 bng 19 250 50 0 empty empty empty 0 -10 0 12 #fcfcfc #000000 #000000;
#X obj 311 652 bng 19 250 50 0 empty empty empty 0 -10 0 12 #fcfcfc #000000 #000000;
#X obj 250 612 sel 2;
#X obj 311 611 sel 3;
#X obj 250 689 s Two;
#X obj 311 688 s Three;
#X obj 184 415 bng 19 250 50 0 empty empty empty 0 -10 0 12 #fcfcfc #000000 #000000;
#X floatatom 185 575 5 0 0 0 - - - 0;
#X text 47 396 reset;
#X text 342 357 counter;
#X obj 380 652 bng 19 250 50 0 empty empty empty 0 -10 0 12 #fcfcfc #000000 #000000;
#X obj 380 611 sel 4;
#X obj 380 688 s Four;
#X obj 438 650 bng 19 250 50 0 empty empty empty 0 -10 0 12 #fcfcfc #000000 #000000;
#X obj 438 609 sel 5;
#X obj 491 649 bng 19 250 50 0 empty empty empty 0 -10 0 12 #fcfcfc #000000 #000000;
#X obj 549 651 bng 19 250 50 0 empty empty empty 0 -10 0 12 #fcfcfc #000000 #000000;
#X obj 473 718 s Bell;
#X obj 491 608 sel 6;
#X obj 549 610 sel 7;
#X obj 639 472 cnv 19 150 275 empty empty empty 20 12 0 12 #c6ffc7 #404040 0;
#X obj 648 522 bng 19 250 50 0 empty empty empty 0 -10 0 12 #fcfcfc #000000 #000000;
#X obj 648 651 *~ 0.5;
#X obj 649 701 dac~;
#X obj 648 606 readsf~;
#X msg 648 564 open bell.wav \, 1;
#X obj 648 478 r Bell;
#X text 638 451 bell sound;
#X obj 43 706 s start_note;
#X obj 1124 45 cnv 19 950 700 empty empty empty 20 12 0 12 #c7c6ff #404040 0;
#X floatatom 1356 240 5 0 0 0 - - - 0;
#X obj 1356 102 vsl 15 128 0 1000 0 0 empty empty empty 0 -9 0 10 #fcfcfc #000000 #000000 0 1;
#X floatatom 1649 242 5 0 0 0 - - - 0;
#X obj 1649 105 vsl 15 128 0 1000 0 0 empty empty empty 0 -9 0 10 #fcfcfc #000000 #000000 0 1;
#X floatatom 1779 242 5 0 0 0 - - - 0;
#X obj 1779 105 vsl 15 128 0 1000 0 0 empty empty empty 0 -9 0 10 #fcfcfc #000000 #000000 0 1;
#X floatatom 1914 241 5 0 0 0 - - - 0;
#X obj 1914 103 vsl 15 128 0 1000 0 0 empty empty empty 0 -9 0 10 #fcfcfc #000000 #000000 0 1;
#X msg 1356 79 300;
#X msg 1649 79 100;
#X msg 1779 79 150;
#X text 1353 56 Attack;
#X text 1645 55 Decay;
#X text 1777 55 Sustain;
#X text 1909 55 Release;
#X obj 1298 79 loadbang;
#X obj 1590 79 loadbang;
#X obj 1719 78 loadbang;
#X obj 1858 78 loadbang;
#X obj 1207 104 vsl 15 128 0 200 0 0 empty empty empty 0 -9 0 10 #fcfcfc #000000 #000000 0 1;
#X obj 1149 81 loadbang;
#X obj 1356 290 s attack;
#X obj 1649 286 s decay;
#X floatatom 1207 264 5 0 0 0 - - - 0;
#X obj 1207 290 s peak_level;
#X obj 1207 241 / 100;
#X msg 1207 81 100;
#X text 1204 58 Peak level;
#X obj 1410 319 r peak_level;
#X obj 1506 354 *;
#X obj 1500 319 t b f;
#X obj 1501 102 vsl 15 128 0 100 0 0 empty empty empty 0 -9 0 10 #fcfcfc #000000 #000000 0 1;
#X obj 1443 79 loadbang;
#X floatatom 1501 262 5 0 0 0 - - - 0;
#X obj 1501 239 / 100;
#X text 1498 56 Sustain level;
#X msg 1501 79 70;
#X obj 1779 289 s sustain;
#X obj 1914 290 s release;
#X obj 1506 382 s sustain_level;
#X text 1540 354 Percentage of peak level;
#X floatatom 1460 542 5 0 0 0 - - - 0;
#X floatatom 1373 545 5 0 0 0 - - - 0;
#X obj 1460 517 r attack;
#X obj 1644 518 r decay;
#X obj 1373 517 r peak_level;
#X obj 1213 517 r start_note;
#X obj 1211 721 vline~;
#X msg 1212 665 \$2 \$3 \, \$4 \$5 \$3 \, 0 \$6 \$7;
#X obj 1213 547 bng 15 250 50 0 empty empty empty 17 7 0 10 #fcfcfc #000000 #000000;
#X obj 1530 518 r sustain_level;
#X floatatom 1530 547 5 0 0 0 - - - 0;
#X floatatom 1643 546 4 0 0 0 - - - 0;
#X obj 1213 627 pack f f f f f f f;
#X obj 1913 470 t b f;
#X obj 1801 492 r sustain;
#X floatatom 1801 518 5 0 0 0 - - - 0;
#X floatatom 1714 546 5 0 0 0 - - - 0;
#X obj 1714 518 r release;
#X obj 1850 519 t b f;
#X obj 1870 492 +;
#X obj 1869 445 r attack;
#X obj 1944 417 r decay;
#X floatatom 1869 469 5 0 0 0 - - - 0;
#X floatatom 1931 445 5 0 0 0 - - - 0;
#X floatatom 1801 572 5 0 0 0 - - - 0;
#X obj 1801 545 +;
#X text 1548 660 peak level \, attack sustain level \, decay \, delay (=attack time) release level (=0) release \, delay (=attack + decay + sustain), f 62;
#X text 1800 603 compute delay for the release \, i.e. sum of attack \, decay \, sustain, f 35;
#X msg 1306 686 1 300 \, 0.7 100 300 \, 0 100 550;
#X text 1120 24 sound envelope;
#X obj 807 346 cnv 19 300 400 empty empty empty 20 12 0 12 #c6feff #404040 0;
#X obj 824 354 r One;
#X obj 824 390 bng 19 250 50 0 empty empty empty 0 -10 0 12 #fcfcfc #000000 #000000;
#X floatatom 826 445 5 0 0 0 - - - 0;
#X obj 825 616 osc~;
#X floatatom 963 584 5 0 0 0 - - - 0;
#X obj 963 622 osc~;
#X obj 960 552 * 2;
#X floatatom 1042 584 5 0 0 0 - - - 0;
#X obj 1042 622 osc~;
#X obj 1039 552 * 3;
#X obj 885 391 bng 19 250 50 0 empty empty empty 0 -10 0 12 #fcfcfc #000000 #000000;
#X floatatom 911 441 5 0 0 0 - - - 0;
#X obj 972 386 bng 19 250 50 0 empty empty empty 0 -10 0 12 #fcfcfc #000000 #000000;
#X floatatom 974 446 5 0 0 0 - - - 0;
#X obj 1052 389 bng 19 250 50 0 empty empty empty 0 -10 0 12 #fcfcfc #000000 #000000;
#X floatatom 1054 442 5 0 0 0 - - - 0;
#X obj 884 354 r Two;
#X obj 972 350 r Three;
#X obj 1052 353 r Four;
#X text 811 325 make additive sound;
#X obj 824 420 294;
#X obj 1041 416 588;
#X obj 887 697 *~ 0.2;
#X obj 1041 655 *~ 0.2;
#X obj 902 414 588;
#X obj 978 415 588;
#X obj 960 652 *~ 0.6;
#X msg 1913 79 50;
#X obj 1178 413 100;
#X msg 277 291 600;
#X connect 5 0 4 0;
#X connect 5 0 4 1;
#X connect 8 0 152 0;
#X connect 9 0 10 1;
#X connect 10 0 27 0;
#X connect 11 0 10 0;
#X connect 11 0 12 0;
#X connect 12 0 13 0;
#X connect 13 0 15 0;
#X connect 14 0 13 0;
#X connect 15 0 16 0;
#X connect 16 0 17 0;
#X connect 16 0 28 0;
#X connect 17 0 16 1;
#X connect 18 0 19 0;
#X connect 19 0 20 0;
#X connect 19 0 49 0;
#X connect 21 0 25 0;
#X connect 21 0 49 0;
#X connect 22 0 26 0;
#X connect 22 0 49 0;
#X connect 23 0 21 0;
#X connect 24 0 22 0;
#X connect 27 0 16 0;
#X connect 28 0 18 0;
#X connect 28 0 24 0;
#X connect 28 0 23 0;
#X connect 28 0 32 0;
#X connect 28 0 35 0;
#X connect 28 0 39 0;
#X connect 28 0 40 0;
#X connect 31 0 33 0;
#X connect 31 0 49 0;
#X connect 32 0 31 0;
#X connect 34 0 38 0;
#X connect 35 0 34 0;
#X connect 36 0 38 0;
#X connect 37 0 11 0;
#X connect 39 0 36 0;
#X connect 40 0 37 0;
#X connect 42 0 46 0;
#X connect 43 0 44 0;
#X connect 43 0 44 1;
#X connect 45 0 43 0;
#X connect 46 0 45 0;
#X connect 47 0 42 0;
#X connect 51 0 72 0;
#X connect 52 0 51 0;
#X connect 53 0 73 0;
#X connect 54 0 53 0;
#X connect 55 0 88 0;
#X connect 56 0 55 0;
#X connect 57 0 89 0;
#X connect 58 0 57 0;
#X connect 59 0 52 0;
#X connect 60 0 54 0;
#X connect 61 0 56 0;
#X connect 66 0 59 0;
#X connect 67 0 60 0;
#X connect 68 0 61 0;
#X connect 69 0 150 0;
#X connect 70 0 76 0;
#X connect 71 0 77 0;
#X connect 74 0 75 0;
#X connect 76 0 74 0;
#X connect 77 0 70 0;
#X connect 79 0 80 0;
#X connect 80 0 90 0;
#X connect 81 0 80 0;
#X connect 81 1 80 1;
#X connect 82 0 85 0;
#X connect 83 0 87 0;
#X connect 84 0 81 0;
#X connect 85 0 84 0;
#X connect 87 0 82 0;
#X connect 92 0 104 2;
#X connect 93 0 104 1;
#X connect 94 0 92 0;
#X connect 95 0 103 0;
#X connect 96 0 93 0;
#X connect 97 0 100 0;
#X connect 98 0 5 1;
#X connect 99 0 98 0;
#X connect 100 0 104 0;
#X connect 101 0 102 0;
#X connect 102 0 104 3;
#X connect 103 0 104 4;
#X connect 104 0 99 0;
#X connect 105 0 111 0;
#X connect 105 1 111 1;
#X connect 106 0 107 0;
#X connect 107 0 117 0;
#X connect 108 0 104 5;
#X connect 109 0 108 0;
#X connect 110 0 117 0;
#X connect 110 1 117 1;
#X connect 111 0 110 0;
#X connect 112 0 114 0;
#X connect 113 0 115 0;
#X connect 114 0 111 0;
#X connect 115 0 105 0;
#X connect 117 0 104 6;
#X connect 117 0 116 0;
#X connect 120 0 98 0;
#X connect 123 0 124 0;
#X connect 124 0 143 0;
#X connect 125 0 126 0;
#X connect 125 0 129 0;
#X connect 125 0 132 0;
#X connect 126 0 145 0;
#X connect 127 0 128 0;
#X connect 128 0 149 0;
#X connect 129 0 127 0;
#X connect 130 0 131 0;
#X connect 131 0 146 0;
#X connect 132 0 130 0;
#X connect 133 0 147 0;
#X connect 134 0 126 0;
#X connect 134 0 129 0;
#X connect 134 0 132 0;
#X connect 135 0 148 0;
#X connect 136 0 126 0;
#X connect 136 0 129 0;
#X connect 136 0 132 0;
#X connect 137 0 144 0;
#X connect 137 0 151 0;
#X connect 138 0 126 0;
#X connect 138 0 129 0;
#X connect 138 0 132 0;
#X connect 139 0 133 0;
#X connect 140 0 135 0;
#X connect 141 0 137 0;
#X connect 143 0 125 0;
#X connect 144 0 138 0;
#X connect 145 0 5 0;
#X connect 146 0 5 0;
#X connect 147 0 134 0;
#X connect 148 0 136 0;
#X connect 149 0 5 0;
#X connect 150 0 58 0;
#X connect 151 0 108 0;
#X connect 152 0 9 0;
#X coords 0 9660 10 9650 0 0 0;
