#N canvas 72 96 1848 984 12;
#X obj 308 13 cnv 15 500 300 empty empty empty 20 12 0 14 -262130 -66577
0;
#X text 337 28 Receiver;
#X obj 344 97 mrpeach/unpackOSC;
#X floatatom 344 179 5 0 0 0 - - -;
#X obj 560 217 print warning_message_not_routed;
#X obj 508 207 tgl 30 0 empty empty empty 17 7 0 10 -262144 -1 -1 2
1;
#X obj 344 71 netreceive -u -b 5005;
#X obj 344 137 mrpeach/routeOSC /x_state;
#X obj 465 256 s x_state;
#X obj 17 13 cnv 19 250 150 empty empty empty 20 12 0 12 -204800 -66577
0;
#X msg 33 105 \; pd dsp \$1;
#X obj 33 33 tgl 30 0 empty empty empty 17 7 0 10 -162280 -1 -1 0 1
;
#X obj 42 85 s global_volume_fade;
#X text 73 38 <-Click to start/stop DSP;
#X obj 859 13 cnv 19 1000 400 empty empty empty 20 12 0 12 -261682
-66577 0;
#N canvas 1916 0 1920 966 SadMel 0;
#X text 21 220 Every 650 perform next sound;
#X obj 20 246 cnv 19 600 500 empty empty empty 20 12 0 12 -261682 -66577
0;
#X obj 277 261 loadbang;
#X floatatom 277 330 5 0 0 0 - - -;
#X obj 184 315 tgl 19 0 empty empty empty 0 -10 0 12 -262144 -1 -1
0 1;
#X obj 113 356 sel 0;
#X obj 113 395 bng 19 250 50 0 empty empty empty 0 -10 0 12 -262144
-1 -1;
#X obj 33 355 loadbang;
#X msg 113 432 -1;
#X obj 185 476 int 1;
#X obj 256 505 + 1;
#X obj 185 611 sel 1;
#X obj 185 652 bng 19 250 50 0 empty empty empty 0 -10 0 12 -262144
-1 -1;
#X obj 185 688 s One;
#X obj 250 653 bng 19 250 50 0 empty empty empty 0 -10 0 12 -262144
-1 -1;
#X obj 311 652 bng 19 250 50 0 empty empty empty 0 -10 0 12 -262144
-1 -1;
#X obj 250 612 sel 2;
#X obj 311 611 sel 3;
#X obj 250 689 s Two;
#X obj 311 688 s Three;
#X obj 184 415 bng 19 250 50 0 empty empty empty 0 -10 0 12 -262144
-1 -1;
#X floatatom 185 575 5 0 0 0 - - -;
#X text 47 396 reset;
#X text 342 357 counter;
#X msg 277 291 650;
#X obj 380 652 bng 19 250 50 0 empty empty empty 0 -10 0 12 -262144
-1 -1;
#X obj 380 611 sel 4;
#X obj 380 688 s Four;
#X obj 438 650 bng 19 250 50 0 empty empty empty 0 -10 0 12 -262144
-1 -1;
#X obj 438 609 sel 5;
#X obj 1063 770 *~;
#X obj 953 44 cnv 19 950 700 empty empty empty 20 12 0 12 -203904 -66577
0;
#X floatatom 1185 239 5 0 0 0 - - -;
#X obj 1185 101 vsl 15 128 0 1000 0 0 empty empty empty 0 -9 0 10 -262144
-1 -1 3810 1;
#X floatatom 1478 241 5 0 0 0 - - -;
#X obj 1478 104 vsl 15 128 0 1000 0 0 empty empty empty 0 -9 0 10 -262144
-1 -1 1270 1;
#X floatatom 1608 241 5 0 0 0 - - -;
#X obj 1608 104 vsl 15 128 0 1000 0 0 empty empty empty 0 -9 0 10 -262144
-1 -1 1905 1;
#X floatatom 1743 240 5 0 0 0 - - -;
#X obj 1743 102 vsl 15 128 0 1000 0 0 empty empty empty 0 -9 0 10 -262144
-1 -1 2540 1;
#X msg 1185 78 300;
#X msg 1478 78 100;
#X msg 1608 78 150;
#X text 1182 55 Attack;
#X text 1474 54 Decay;
#X text 1606 54 Sustain;
#X text 1738 54 Release;
#X obj 1127 78 loadbang;
#X obj 1419 78 loadbang;
#X obj 1548 77 loadbang;
#X obj 1687 77 loadbang;
#X obj 1036 103 vsl 15 128 0 200 0 0 empty empty empty 0 -9 0 10 -262144
-1 -1 6350 1;
#X obj 978 80 loadbang;
#X obj 1185 289 s attack;
#X obj 1478 285 s decay;
#X floatatom 1036 263 5 0 0 0 - - -;
#X obj 1036 289 s peak_level;
#X obj 1036 240 / 100;
#X msg 1036 80 100;
#X text 1033 57 Peak level;
#X obj 1239 318 r peak_level;
#X obj 1335 353 *;
#X obj 1329 318 t b f;
#X obj 1330 101 vsl 15 128 0 100 0 0 empty empty empty 0 -9 0 10 -262144
-1 -1 8890 1;
#X obj 1272 78 loadbang;
#X floatatom 1330 261 5 0 0 0 - - -;
#X obj 1330 238 / 100;
#X text 1327 55 Sustain level;
#X msg 1330 78 70;
#X obj 1608 288 s sustain;
#X obj 1743 289 s release;
#X obj 1335 381 s sustain_level;
#X text 1369 353 Percentage of peak level;
#X floatatom 1289 541 5 0 0 0 - - -;
#X floatatom 1202 544 5 0 0 0 - - -;
#X obj 1289 516 r attack;
#X obj 1473 517 r decay;
#X obj 1202 516 r peak_level;
#X obj 1040 720 vline~;
#X msg 1041 664 \$2 \$3 \, \$4 \$5 \$3 \, 0 \$6 \$7;
#X obj 1042 546 bng 15 250 50 0 empty empty empty 17 7 0 10 -262144
-1 -1;
#X obj 1359 517 r sustain_level;
#X floatatom 1359 546 5 0 0 0 - - -;
#X floatatom 1472 545 4 0 0 0 - - -;
#X obj 1042 626 pack f f f f f f f;
#X obj 1742 469 t b f;
#X obj 1630 491 r sustain;
#X floatatom 1630 517 5 0 0 0 - - -;
#X floatatom 1543 545 5 0 0 0 - - -;
#X obj 1543 517 r release;
#X obj 1679 518 t b f;
#X obj 1699 491 +;
#X obj 1698 444 r attack;
#X obj 1773 416 r decay;
#X floatatom 1698 468 5 0 0 0 - - -;
#X floatatom 1760 444 5 0 0 0 - - -;
#X floatatom 1630 571 5 0 0 0 - - -;
#X obj 1630 544 +;
#X text 1377 659 peak level \, attack sustain level \, decay \, delay
(=attack time) release level (=0) release \, delay (=attack + decay
+ sustain), f 62;
#X text 1629 602 compute delay for the release \, i.e. sum of attack
\, decay \, sustain, f 35;
#X msg 1135 685 1 300 \, 0.7 100 300 \, 0 100 550;
#X text 949 23 sound envelope;
#X obj 636 345 cnv 19 300 400 empty empty empty 20 12 0 12 -204800
-66577 0;
#X obj 653 353 r One;
#X obj 653 389 bng 19 250 50 0 empty empty empty 0 -10 0 12 -262144
-1 -1;
#X floatatom 655 444 5 0 0 0 - - -;
#X obj 654 615 osc~;
#X floatatom 792 583 5 0 0 0 - - -;
#X obj 792 621 osc~;
#X obj 789 551 * 2;
#X floatatom 871 583 5 0 0 0 - - -;
#X obj 871 621 osc~;
#X obj 868 551 * 3;
#X obj 714 390 bng 19 250 50 0 empty empty empty 0 -10 0 12 -262144
-1 -1;
#X floatatom 740 440 5 0 0 0 - - -;
#X obj 801 385 bng 19 250 50 0 empty empty empty 0 -10 0 12 -262144
-1 -1;
#X floatatom 803 445 5 0 0 0 - - -;
#X obj 881 388 bng 19 250 50 0 empty empty empty 0 -10 0 12 -262144
-1 -1;
#X floatatom 883 441 5 0 0 0 - - -;
#X obj 713 353 r Two;
#X obj 801 349 r Three;
#X obj 881 352 r Four;
#X text 640 324 make additive sound;
#X obj 653 419 294;
#X obj 731 413 262;
#X obj 1007 412 1000;
#X msg 1742 78 200;
#X obj 716 696 *~ 0.6;
#X obj 791 654 *~ 0.2;
#X obj 870 654 *~ 0.1;
#X obj 184 278 inlet;
#X obj 1063 809 outlet~;
#X obj 184 355 metro 650;
#X obj 43 706 s start_note_S;
#X obj 1042 516 r start_note_S;
#X obj 870 415 220;
#X obj 807 414 233;
#X obj 978 446 200;
#X connect 2 0 24 0;
#X connect 3 0 132 1;
#X connect 4 0 5 0;
#X connect 4 0 132 0;
#X connect 5 0 6 0;
#X connect 6 0 8 0;
#X connect 7 0 6 0;
#X connect 8 0 9 0;
#X connect 9 0 10 0;
#X connect 9 0 21 0;
#X connect 10 0 9 1;
#X connect 11 0 12 0;
#X connect 12 0 13 0;
#X connect 12 0 133 0;
#X connect 14 0 18 0;
#X connect 14 0 133 0;
#X connect 15 0 19 0;
#X connect 15 0 133 0;
#X connect 16 0 14 0;
#X connect 17 0 15 0;
#X connect 20 0 9 0;
#X connect 21 0 11 0;
#X connect 21 0 17 0;
#X connect 21 0 16 0;
#X connect 21 0 26 0;
#X connect 21 0 29 0;
#X connect 24 0 3 0;
#X connect 25 0 27 0;
#X connect 25 0 133 0;
#X connect 26 0 25 0;
#X connect 28 0 4 0;
#X connect 29 0 28 0;
#X connect 30 0 131 0;
#X connect 32 0 53 0;
#X connect 33 0 32 0;
#X connect 34 0 54 0;
#X connect 35 0 34 0;
#X connect 36 0 69 0;
#X connect 37 0 36 0;
#X connect 38 0 70 0;
#X connect 39 0 38 0;
#X connect 40 0 33 0;
#X connect 41 0 35 0;
#X connect 42 0 37 0;
#X connect 47 0 40 0;
#X connect 48 0 41 0;
#X connect 49 0 42 0;
#X connect 50 0 126 0;
#X connect 51 0 57 0;
#X connect 52 0 58 0;
#X connect 55 0 56 0;
#X connect 57 0 55 0;
#X connect 58 0 51 0;
#X connect 60 0 61 0;
#X connect 61 0 71 0;
#X connect 62 0 61 0;
#X connect 62 1 61 1;
#X connect 63 0 66 0;
#X connect 64 0 68 0;
#X connect 65 0 62 0;
#X connect 66 0 65 0;
#X connect 68 0 63 0;
#X connect 73 0 84 2;
#X connect 74 0 84 1;
#X connect 75 0 73 0;
#X connect 76 0 83 0;
#X connect 77 0 74 0;
#X connect 78 0 30 1;
#X connect 79 0 78 0;
#X connect 80 0 84 0;
#X connect 81 0 82 0;
#X connect 82 0 84 3;
#X connect 83 0 84 4;
#X connect 84 0 79 0;
#X connect 85 0 91 0;
#X connect 85 1 91 1;
#X connect 86 0 87 0;
#X connect 87 0 97 0;
#X connect 88 0 84 5;
#X connect 89 0 88 0;
#X connect 90 0 97 0;
#X connect 90 1 97 1;
#X connect 91 0 90 0;
#X connect 92 0 94 0;
#X connect 93 0 95 0;
#X connect 94 0 91 0;
#X connect 95 0 85 0;
#X connect 97 0 84 6;
#X connect 97 0 96 0;
#X connect 100 0 78 0;
#X connect 103 0 104 0;
#X connect 104 0 123 0;
#X connect 104 0 137 0;
#X connect 105 0 106 0;
#X connect 105 0 109 0;
#X connect 105 0 112 0;
#X connect 106 0 127 0;
#X connect 107 0 108 0;
#X connect 108 0 128 0;
#X connect 109 0 107 0;
#X connect 110 0 111 0;
#X connect 111 0 129 0;
#X connect 112 0 110 0;
#X connect 113 0 124 0;
#X connect 113 0 137 0;
#X connect 114 0 106 0;
#X connect 114 0 109 0;
#X connect 114 0 112 0;
#X connect 115 0 136 0;
#X connect 115 0 137 0;
#X connect 116 0 106 0;
#X connect 116 0 109 0;
#X connect 116 0 112 0;
#X connect 117 0 125 0;
#X connect 117 0 135 0;
#X connect 118 0 106 0;
#X connect 118 0 109 0;
#X connect 118 0 112 0;
#X connect 119 0 113 0;
#X connect 120 0 115 0;
#X connect 121 0 117 0;
#X connect 123 0 105 0;
#X connect 124 0 114 0;
#X connect 125 0 88 0;
#X connect 126 0 39 0;
#X connect 127 0 30 0;
#X connect 128 0 30 0;
#X connect 129 0 30 0;
#X connect 130 0 4 0;
#X connect 132 0 20 0;
#X connect 134 0 80 0;
#X connect 135 0 118 0;
#X connect 136 0 116 0;
#X connect 137 0 88 0;
#X restore 1093 304 pd SadMel;
#X obj 1093 269 bng 19 250 50 0 empty empty empty 0 -10 0 12 -262144
-1 -1;
#X obj 1215 271 bng 19 250 50 0 empty empty empty 0 -10 0 12 -262144
-1 -1;
#N canvas -102 6 1920 966 HappyMel 0;
#X text 21 220 Every 650 perform next sound;
#X obj 20 246 cnv 19 600 500 empty empty empty 20 12 0 12 -261682 -66577
0;
#X obj 277 261 loadbang;
#X floatatom 277 330 5 0 0 0 - - -;
#X obj 184 355 metro;
#X obj 184 315 tgl 19 0 empty empty empty 0 -10 0 12 -262144 -1 -1
0 1;
#X obj 113 356 sel 0;
#X obj 113 395 bng 19 250 50 0 empty empty empty 0 -10 0 12 -262144
-1 -1;
#X obj 33 355 loadbang;
#X msg 113 432 -1;
#X obj 185 476 int 1;
#X obj 256 505 + 1;
#X obj 185 611 sel 1;
#X obj 185 652 bng 19 250 50 0 empty empty empty 0 -10 0 12 -262144
-1 -1;
#X obj 250 653 bng 19 250 50 0 empty empty empty 0 -10 0 12 -262144
-1 -1;
#X obj 311 652 bng 19 250 50 0 empty empty empty 0 -10 0 12 -262144
-1 -1;
#X obj 250 612 sel 2;
#X obj 311 611 sel 3;
#X obj 184 415 bng 19 250 50 0 empty empty empty 0 -10 0 12 -262144
-1 -1;
#X floatatom 185 575 5 0 0 0 - - -;
#X text 47 396 reset;
#X text 342 357 counter;
#X obj 380 652 bng 19 250 50 0 empty empty empty 0 -10 0 12 -262144
-1 -1;
#X obj 380 611 sel 4;
#X obj 438 650 bng 19 250 50 0 empty empty empty 0 -10 0 12 -262144
-1 -1;
#X obj 438 609 sel 5;
#X obj 491 649 bng 19 250 50 0 empty empty empty 0 -10 0 12 -262144
-1 -1;
#X obj 549 651 bng 19 250 50 0 empty empty empty 0 -10 0 12 -262144
-1 -1;
#X obj 561 687 s Bell;
#X obj 491 608 sel 6;
#X obj 549 610 sel 7;
#X obj 639 472 cnv 19 150 275 empty empty empty 20 12 0 12 -204786
-66577 0;
#X obj 648 522 bng 19 250 50 0 empty empty empty 0 -10 0 12 -262144
-1 -1;
#X obj 648 651 *~ 0.5;
#X obj 649 701 dac~;
#X obj 648 606 readsf~;
#X msg 648 564 open bell.wav \, 1;
#X obj 648 478 r Bell;
#X text 638 451 bell sound;
#X obj 1234 771 *~;
#X obj 1331 57 cnv 19 950 700 empty empty empty 20 12 0 12 -203904
-66577 0;
#X floatatom 1563 252 5 0 0 0 - - -;
#X obj 1563 114 vsl 15 128 0 1000 0 0 empty empty empty 0 -9 0 10 -262144
-1 -1 2540 1;
#X floatatom 1856 254 5 0 0 0 - - -;
#X obj 1856 117 vsl 15 128 0 1000 0 0 empty empty empty 0 -9 0 10 -262144
-1 -1 1270 1;
#X floatatom 1986 254 5 0 0 0 - - -;
#X obj 1986 117 vsl 15 128 0 1000 0 0 empty empty empty 0 -9 0 10 -262144
-1 -1 635 1;
#X floatatom 2121 253 5 0 0 0 - - -;
#X obj 2121 115 vsl 15 128 0 1000 0 0 empty empty empty 0 -9 0 10 -262144
-1 -1 635 1;
#X msg 1856 91 100;
#X text 1560 68 Attack;
#X text 1852 67 Decay;
#X text 1984 67 Sustain;
#X text 2116 67 Release;
#X obj 1505 91 loadbang;
#X obj 1797 91 loadbang;
#X obj 1926 90 loadbang;
#X obj 2065 90 loadbang;
#X obj 1414 116 vsl 15 128 0 200 0 0 empty empty empty 0 -9 0 10 -262144
-1 -1 6350 1;
#X obj 1356 93 loadbang;
#X obj 1563 302 s attack;
#X obj 1856 298 s decay;
#X floatatom 1414 276 5 0 0 0 - - -;
#X obj 1414 302 s peak_level;
#X obj 1414 253 / 100;
#X msg 1414 93 100;
#X text 1411 70 Peak level;
#X obj 1617 331 r peak_level;
#X obj 1713 366 *;
#X obj 1707 331 t b f;
#X obj 1708 114 vsl 15 128 0 100 0 0 empty empty empty 0 -9 0 10 -262144
-1 -1 8890 1;
#X obj 1650 91 loadbang;
#X floatatom 1708 274 5 0 0 0 - - -;
#X obj 1708 251 / 100;
#X text 1705 68 Sustain level;
#X msg 1708 91 70;
#X obj 1986 301 s sustain;
#X obj 2121 302 s release;
#X obj 1713 394 s sustain_level;
#X text 1747 366 Percentage of peak level;
#X floatatom 1667 554 5 0 0 0 - - -;
#X floatatom 1580 557 5 0 0 0 - - -;
#X obj 1667 529 r attack;
#X obj 1851 530 r decay;
#X obj 1580 529 r peak_level;
#X obj 1418 733 vline~;
#X msg 1419 677 \$2 \$3 \, \$4 \$5 \$3 \, 0 \$6 \$7;
#X obj 1420 559 bng 15 250 50 0 empty empty empty 17 7 0 10 -262144
-1 -1;
#X obj 1737 530 r sustain_level;
#X floatatom 1737 559 5 0 0 0 - - -;
#X floatatom 1850 558 4 0 0 0 - - -;
#X obj 1420 639 pack f f f f f f f;
#X obj 2120 482 t b f;
#X obj 2008 504 r sustain;
#X floatatom 2008 530 5 0 0 0 - - -;
#X floatatom 1921 558 5 0 0 0 - - -;
#X obj 1921 530 r release;
#X obj 2057 531 t b f;
#X obj 2077 504 +;
#X obj 2076 457 r attack;
#X obj 2151 429 r decay;
#X floatatom 2076 481 5 0 0 0 - - -;
#X floatatom 2138 457 5 0 0 0 - - -;
#X floatatom 2008 595 5 0 0 0 - - -;
#X obj 2008 566 +, f 4;
#X text 1755 672 peak level \, attack sustain level \, decay \, delay
(=attack time) release level (=0) release \, delay (=attack + decay
+ sustain), f 62;
#X text 2007 615 compute delay for the release \, i.e. sum of attack
\, decay \, sustain, f 35;
#X msg 1513 698 1 300 \, 0.7 100 300 \, 0 100 550;
#X text 1327 36 sound envelope;
#X obj 807 346 cnv 19 500 400 empty empty empty 20 12 0 12 -204800
-66577 0;
#X obj 824 390 bng 19 250 50 0 empty empty empty 0 -10 0 12 -262144
-1 -1;
#X floatatom 826 445 5 0 0 0 - - -;
#X obj 825 616 osc~;
#X floatatom 963 584 5 0 0 0 - - -;
#X obj 963 622 osc~;
#X obj 960 552 * 2;
#X floatatom 1042 584 5 0 0 0 - - -;
#X obj 1042 622 osc~;
#X obj 1039 552 * 3;
#X obj 885 391 bng 19 250 50 0 empty empty empty 0 -10 0 12 -262144
-1 -1;
#X floatatom 911 441 5 0 0 0 - - -;
#X obj 972 386 bng 19 250 50 0 empty empty empty 0 -10 0 12 -262144
-1 -1;
#X floatatom 974 446 5 0 0 0 - - -;
#X obj 1052 389 bng 19 250 50 0 empty empty empty 0 -10 0 12 -262144
-1 -1;
#X floatatom 1054 442 5 0 0 0 - - -;
#X text 811 325 make additive sound;
#X obj 824 420 294;
#X obj 887 697 *~ 0.2;
#X obj 1041 655 *~ 0.2;
#X obj 960 652 *~ 0.6;
#X msg 2120 91 50;
#X obj 184 278 inlet;
#X obj 1234 814 outlet~;
#X obj 185 688 s OneH;
#X obj 250 689 s TwoH;
#X obj 311 688 s ThreeH;
#X obj 380 688 s FourH;
#X obj 824 354 r OneH;
#X obj 884 354 r TwoH;
#X obj 972 350 r ThreeH;
#X obj 1052 355 r FourH;
#X obj 1420 529 r start_note_H;
#X obj 43 706 s start_note_H;
#X msg 1564 90 200;
#X msg 277 291 500;
#X obj 1133 389 bng 19 250 50 0 empty empty empty 0 -10 0 12 -262144
-1 -1;
#X floatatom 1125 440 5 0 0 0 - - -;
#X obj 1203 387 bng 19 250 50 0 empty empty empty 0 -10 0 12 -262144
-1 -1;
#X floatatom 1199 448 5 0 0 0 - - -;
#X obj 902 414 330;
#X obj 442 686 s FiveH;
#X obj 504 687 s SixH;
#X obj 1133 355 r FiveH;
#X obj 1203 353 r SixH;
#X obj 978 415 370;
#X obj 1041 416 440;
#X obj 1122 416 370;
#X obj 1202 415 440;
#X msg 1986 91 50;
#X obj 1508 467 60;
#X obj 1631 451 150;
#X connect 2 0 144 0;
#X connect 3 0 4 1;
#X connect 4 0 18 0;
#X connect 5 0 4 0;
#X connect 5 0 6 0;
#X connect 6 0 7 0;
#X connect 7 0 9 0;
#X connect 8 0 7 0;
#X connect 9 0 10 0;
#X connect 10 0 11 0;
#X connect 10 0 19 0;
#X connect 11 0 10 1;
#X connect 12 0 13 0;
#X connect 13 0 133 0;
#X connect 13 0 142 0;
#X connect 14 0 134 0;
#X connect 14 0 142 0;
#X connect 15 0 135 0;
#X connect 15 0 142 0;
#X connect 16 0 14 0;
#X connect 17 0 15 0;
#X connect 18 0 10 0;
#X connect 19 0 12 0;
#X connect 19 0 17 0;
#X connect 19 0 16 0;
#X connect 19 0 23 0;
#X connect 19 0 25 0;
#X connect 19 0 29 0;
#X connect 19 0 30 0;
#X connect 22 0 136 0;
#X connect 22 0 142 0;
#X connect 23 0 22 0;
#X connect 24 0 150 0;
#X connect 24 0 142 0;
#X connect 25 0 24 0;
#X connect 26 0 151 0;
#X connect 26 0 142 0;
#X connect 27 0 28 0;
#X connect 27 0 5 0;
#X connect 29 0 26 0;
#X connect 30 0 27 0;
#X connect 32 0 36 0;
#X connect 33 0 34 0;
#X connect 33 0 34 1;
#X connect 35 0 33 0;
#X connect 36 0 35 0;
#X connect 37 0 32 0;
#X connect 39 0 132 0;
#X connect 41 0 60 0;
#X connect 42 0 41 0;
#X connect 43 0 61 0;
#X connect 44 0 43 0;
#X connect 45 0 76 0;
#X connect 46 0 45 0;
#X connect 47 0 77 0;
#X connect 48 0 47 0;
#X connect 49 0 44 0;
#X connect 54 0 143 0;
#X connect 55 0 49 0;
#X connect 56 0 158 0;
#X connect 57 0 130 0;
#X connect 58 0 64 0;
#X connect 59 0 65 0;
#X connect 62 0 63 0;
#X connect 64 0 62 0;
#X connect 65 0 58 0;
#X connect 67 0 68 0;
#X connect 68 0 78 0;
#X connect 69 0 68 0;
#X connect 69 1 68 1;
#X connect 70 0 73 0;
#X connect 71 0 75 0;
#X connect 72 0 69 0;
#X connect 73 0 72 0;
#X connect 75 0 70 0;
#X connect 80 0 91 2;
#X connect 81 0 91 1;
#X connect 82 0 80 0;
#X connect 83 0 90 0;
#X connect 84 0 81 0;
#X connect 85 0 39 1;
#X connect 86 0 85 0;
#X connect 87 0 91 0;
#X connect 88 0 89 0;
#X connect 89 0 91 3;
#X connect 90 0 91 4;
#X connect 91 0 86 0;
#X connect 92 0 98 0;
#X connect 92 1 98 1;
#X connect 93 0 94 0;
#X connect 94 0 104 0;
#X connect 95 0 91 5;
#X connect 96 0 95 0;
#X connect 97 0 104 0;
#X connect 97 1 104 1;
#X connect 98 0 97 0;
#X connect 99 0 101 0;
#X connect 100 0 102 0;
#X connect 101 0 98 0;
#X connect 102 0 92 0;
#X connect 104 0 91 6;
#X connect 104 0 103 0;
#X connect 104 0 3 0;
#X connect 107 0 85 0;
#X connect 110 0 126 0;
#X connect 110 0 159 0;
#X connect 111 0 112 0;
#X connect 111 0 115 0;
#X connect 111 0 118 0;
#X connect 112 0 127 0;
#X connect 113 0 114 0;
#X connect 114 0 129 0;
#X connect 115 0 113 0;
#X connect 116 0 117 0;
#X connect 117 0 128 0;
#X connect 118 0 116 0;
#X connect 119 0 149 0;
#X connect 119 0 159 0;
#X connect 120 0 112 0;
#X connect 120 0 115 0;
#X connect 120 0 118 0;
#X connect 121 0 154 0;
#X connect 121 0 159 0;
#X connect 122 0 112 0;
#X connect 122 0 115 0;
#X connect 122 0 118 0;
#X connect 123 0 155 0;
#X connect 123 0 160 0;
#X connect 124 0 112 0;
#X connect 124 0 115 0;
#X connect 124 0 118 0;
#X connect 126 0 111 0;
#X connect 127 0 39 0;
#X connect 128 0 39 0;
#X connect 129 0 39 0;
#X connect 130 0 48 0;
#X connect 131 0 5 0;
#X connect 137 0 110 0;
#X connect 138 0 119 0;
#X connect 139 0 121 0;
#X connect 140 0 123 0;
#X connect 141 0 87 0;
#X connect 143 0 42 0;
#X connect 144 0 3 0;
#X connect 145 0 156 0;
#X connect 145 0 159 0;
#X connect 146 0 112 0;
#X connect 146 0 115 0;
#X connect 146 0 118 0;
#X connect 147 0 157 0;
#X connect 147 0 160 0;
#X connect 148 0 118 0;
#X connect 148 0 115 0;
#X connect 148 0 112 0;
#X connect 149 0 120 0;
#X connect 152 0 145 0;
#X connect 153 0 147 0;
#X connect 154 0 122 0;
#X connect 155 0 124 0;
#X connect 156 0 146 0;
#X connect 157 0 148 0;
#X connect 158 0 46 0;
#X connect 159 0 95 0;
#X connect 159 0 94 0;
#X connect 160 0 95 0;
#X connect 160 0 94 0;
#X restore 1215 303 pd HappyMel;
#X obj 875 144 tgl 30 0 empty empty empty 17 7 0 10 -262144 -1 -1 2
1;
#X text 875 13 Data from digital sensors;
#X obj 1093 352 dac~ 1 2;
#X obj 1216 352 dac~ 1 2;
#X obj 875 34 r x_state;
#X obj 1375 267 bng 19 250 50 0 empty empty empty 0 -10 0 12 -262144
-1 -1;
#X obj 1497 269 bng 19 250 50 0 empty empty empty 0 -10 0 12 -262144
-1 -1;
#X obj 326 254 print Key_received;
#X obj 875 68 unpack f;
#X obj 927 165 print Key_received;
#N canvas 1869 104 1920 966 CueTwo 0;
#X floatatom 1986 254 5 0 0 0 - - -;
#X obj 1986 117 vsl 15 128 0 1000 0 0 empty empty empty 0 -9 0 10 -262144
-1 -1 635 1;
#X floatatom 2121 253 5 0 0 0 - - -;
#X obj 2121 115 vsl 15 128 0 1000 0 0 empty empty empty 0 -9 0 10 -262144
-1 -1 635 1;
#X text 1984 67 Sustain;
#X text 2116 67 Release;
#X obj 1926 90 loadbang;
#X obj 2065 90 loadbang;
#X obj 1986 301 s sustain;
#X obj 2121 302 s release;
#X obj 2120 482 t b f;
#X obj 2008 504 r sustain;
#X floatatom 2008 530 5 0 0 0 - - -;
#X floatatom 1921 558 5 0 0 0 - - -;
#X obj 1921 530 r release;
#X obj 2057 531 t b f;
#X obj 2077 504 +;
#X obj 2076 457 r attack;
#X obj 2151 429 r decay;
#X floatatom 2076 481 5 0 0 0 - - -;
#X floatatom 2138 457 5 0 0 0 - - -;
#X floatatom 2008 595 5 0 0 0 - - -;
#X obj 2008 566 +, f 4;
#X text 2007 615 compute delay for the release \, i.e. sum of attack
\, decay \, sustain, f 35;
#X msg 2120 91 50;
#X msg 1986 91 50;
#X obj 266 827 outlet~;
#X obj 271 765 *~;
#X obj 187 31 cnv 19 950 700 empty empty empty 20 12 0 12 -203904 -66577
0;
#X floatatom 419 226 5 0 0 0 - - -;
#X obj 419 88 vsl 15 128 0 1000 0 0 empty empty empty 0 -9 0 10 -262144
-1 -1 635 1;
#X floatatom 712 228 5 0 0 0 - - -;
#X obj 712 91 vsl 15 128 0 1000 0 0 empty empty empty 0 -9 0 10 -262144
-1 -1 1270 1;
#X floatatom 842 228 5 0 0 0 - - -;
#X obj 842 91 vsl 15 128 0 1000 0 0 empty empty empty 0 -9 0 10 -262144
-1 -1 3175 1;
#X floatatom 977 227 5 0 0 0 - - -;
#X obj 977 89 vsl 15 128 0 1000 0 0 empty empty empty 0 -9 0 10 -262144
-1 -1 2540 1;
#X msg 712 65 100;
#X text 416 42 Attack;
#X text 708 41 Decay;
#X text 840 41 Sustain;
#X text 972 41 Release;
#X obj 361 65 loadbang;
#X obj 653 65 loadbang;
#X obj 782 64 loadbang;
#X obj 921 64 loadbang;
#X obj 270 90 vsl 15 128 0 200 0 0 empty empty empty 0 -9 0 10 -262144
-1 -1 6350 1;
#X obj 212 67 loadbang;
#X obj 419 276 s attack;
#X obj 712 272 s decay;
#X floatatom 270 250 5 0 0 0 - - -;
#X obj 270 276 s peak_level;
#X obj 270 227 / 100;
#X msg 270 67 100;
#X text 267 44 Peak level;
#X obj 473 305 r peak_level;
#X obj 569 340 *;
#X obj 563 305 t b f;
#X obj 564 88 vsl 15 128 0 100 0 0 empty empty empty 0 -9 0 10 -262144
-1 -1 8890 1;
#X obj 506 65 loadbang;
#X floatatom 564 248 5 0 0 0 - - -;
#X obj 564 225 / 100;
#X text 561 42 Sustain level;
#X msg 564 65 70;
#X obj 842 275 s sustain;
#X obj 977 276 s release;
#X obj 569 368 s sustain_level;
#X text 603 340 Percentage of peak level;
#X floatatom 523 528 5 0 0 0 - - -;
#X floatatom 419 532 5 0 0 0 - - -;
#X obj 523 503 r attack;
#X obj 707 504 r decay;
#X obj 419 504 r peak_level;
#X obj 274 707 vline~;
#X msg 275 651 \$2 \$3 \, \$4 \$5 \$3 \, 0 \$6 \$7;
#X obj 276 533 bng 15 250 50 0 empty empty empty 17 7 0 10 -262144
-1 -1;
#X obj 593 504 r sustain_level;
#X floatatom 593 533 5 0 0 0 - - -;
#X floatatom 706 532 4 0 0 0 - - -;
#X obj 276 613 pack f f f f f f f;
#X obj 976 456 t b f;
#X obj 864 478 r sustain;
#X floatatom 864 504 5 0 0 0 - - -;
#X floatatom 777 532 5 0 0 0 - - -;
#X obj 777 504 r release;
#X obj 913 505 t b f;
#X obj 933 478 +;
#X obj 932 431 r attack;
#X obj 1007 403 r decay;
#X floatatom 932 455 5 0 0 0 - - -;
#X floatatom 994 431 5 0 0 0 - - -;
#X floatatom 864 558 5 0 0 0 - - -;
#X obj 864 531 +;
#X text 611 646 peak level \, attack sustain level \, decay \, delay
(=attack time) release level (=0) release \, delay (=attack + decay
+ sustain), f 62;
#X text 863 589 compute delay for the release \, i.e. sum of attack
\, decay \, sustain, f 35;
#X msg 369 672 1 300 \, 0.7 100 300 \, 0 100 550;
#X text 183 10 sound envelope;
#X msg 841 65 250;
#X msg 975 64 200;
#X obj 22 33 cnv 19 160 160 empty empty empty 20 12 0 12 -262130 -66577
0;
#X obj 32 55 inlet;
#X obj 32 100 bng 19 250 50 0 empty empty empty 0 -10 0 12 -262144
-1 -1;
#X obj 51 658 cnv 19 126 75 empty empty empty 20 12 0 12 -204800 -66577
0;
#X obj 72 679 osc~ 440;
#X text 49 638 frequency;
#X text 23 10 inlet;
#X msg 419 65 50;
#X obj 32 156 s start_noteCueTwoDx;
#X obj 276 503 r start_noteCueTwoDx;
#X connect 0 0 8 0;
#X connect 1 0 0 0;
#X connect 2 0 9 0;
#X connect 3 0 2 0;
#X connect 6 0 25 0;
#X connect 7 0 24 0;
#X connect 10 0 16 0;
#X connect 10 1 16 1;
#X connect 11 0 12 0;
#X connect 12 0 22 0;
#X connect 14 0 13 0;
#X connect 15 0 22 0;
#X connect 15 1 22 1;
#X connect 16 0 15 0;
#X connect 17 0 19 0;
#X connect 18 0 20 0;
#X connect 19 0 16 0;
#X connect 20 0 10 0;
#X connect 22 0 21 0;
#X connect 24 0 3 0;
#X connect 25 0 1 0;
#X connect 27 0 26 0;
#X connect 29 0 48 0;
#X connect 30 0 29 0;
#X connect 31 0 49 0;
#X connect 32 0 31 0;
#X connect 33 0 64 0;
#X connect 34 0 33 0;
#X connect 35 0 65 0;
#X connect 36 0 35 0;
#X connect 37 0 32 0;
#X connect 42 0 106 0;
#X connect 43 0 37 0;
#X connect 44 0 97 0;
#X connect 45 0 98 0;
#X connect 46 0 52 0;
#X connect 47 0 53 0;
#X connect 50 0 51 0;
#X connect 52 0 50 0;
#X connect 53 0 46 0;
#X connect 55 0 56 0;
#X connect 56 0 66 0;
#X connect 57 0 56 0;
#X connect 57 1 56 1;
#X connect 58 0 61 0;
#X connect 59 0 63 0;
#X connect 60 0 57 0;
#X connect 61 0 60 0;
#X connect 63 0 58 0;
#X connect 68 0 79 2;
#X connect 69 0 79 1;
#X connect 70 0 68 0;
#X connect 71 0 78 0;
#X connect 72 0 69 0;
#X connect 73 0 27 1;
#X connect 74 0 73 0;
#X connect 75 0 79 0;
#X connect 76 0 77 0;
#X connect 77 0 79 3;
#X connect 78 0 79 4;
#X connect 79 0 74 0;
#X connect 80 0 86 0;
#X connect 80 1 86 1;
#X connect 81 0 82 0;
#X connect 82 0 92 0;
#X connect 83 0 79 5;
#X connect 84 0 83 0;
#X connect 85 0 92 0;
#X connect 85 1 92 1;
#X connect 86 0 85 0;
#X connect 87 0 89 0;
#X connect 88 0 90 0;
#X connect 89 0 86 0;
#X connect 90 0 80 0;
#X connect 92 0 79 6;
#X connect 92 0 91 0;
#X connect 95 0 73 0;
#X connect 97 0 34 0;
#X connect 98 0 36 0;
#X connect 100 0 101 0;
#X connect 101 0 107 0;
#X connect 103 0 27 0;
#X connect 106 0 30 0;
#X connect 108 0 75 0;
#X restore 1712 308 pd CueTwo;
#X obj 1599 270 bng 19 250 50 0 empty empty empty 0 -10 0 12 -262144
-1 -1;
#X obj 1721 272 bng 19 250 50 0 empty empty empty 0 -10 0 12 -262144
-1 -1;
#X obj 1092 130 sel 1 2 3 4 5 6;
#X obj 1498 349 dac~ 1;
#X obj 1599 352 dac~ 2;
#X obj 1722 352 dac~ 2;
#N canvas 1913 74 1920 966 CueOneSx 0;
#X obj 266 827 outlet~;
#X obj 271 765 *~;
#X obj 187 31 cnv 19 950 700 empty empty empty 20 12 0 12 -203904 -66577
0;
#X floatatom 419 226 5 0 0 0 - - -;
#X obj 419 88 vsl 15 128 0 1000 0 0 empty empty empty 0 -9 0 10 -262144
-1 -1 127 1;
#X floatatom 712 228 5 0 0 0 - - -;
#X obj 712 91 vsl 15 128 0 1000 0 0 empty empty empty 0 -9 0 10 -262144
-1 -1 1270 1;
#X floatatom 842 228 5 0 0 0 - - -;
#X obj 842 91 vsl 15 128 0 1000 0 0 empty empty empty 0 -9 0 10 -262144
-1 -1 3175 1;
#X floatatom 977 227 5 0 0 0 - - -;
#X obj 977 89 vsl 15 128 0 1000 0 0 empty empty empty 0 -9 0 10 -262144
-1 -1 2540 1;
#X msg 712 65 100;
#X text 416 42 Attack;
#X text 708 41 Decay;
#X text 840 41 Sustain;
#X text 972 41 Release;
#X obj 361 65 loadbang;
#X obj 653 65 loadbang;
#X obj 782 64 loadbang;
#X obj 921 64 loadbang;
#X obj 270 90 vsl 15 128 0 200 0 0 empty empty empty 0 -9 0 10 -262144
-1 -1 6350 1;
#X obj 212 67 loadbang;
#X obj 419 276 s attack;
#X obj 712 272 s decay;
#X floatatom 270 250 5 0 0 0 - - -;
#X obj 270 276 s peak_level;
#X obj 270 227 / 100;
#X msg 270 67 100;
#X text 267 44 Peak level;
#X obj 473 305 r peak_level;
#X obj 569 340 *;
#X obj 563 305 t b f;
#X obj 564 88 vsl 15 128 0 100 0 0 empty empty empty 0 -9 0 10 -262144
-1 -1 8890 1;
#X obj 506 65 loadbang;
#X floatatom 564 248 5 0 0 0 - - -;
#X obj 564 225 / 100;
#X text 561 42 Sustain level;
#X msg 564 65 70;
#X obj 842 275 s sustain;
#X obj 977 276 s release;
#X obj 569 368 s sustain_level;
#X text 603 340 Percentage of peak level;
#X floatatom 523 528 5 0 0 0 - - -;
#X floatatom 419 532 5 0 0 0 - - -;
#X obj 523 503 r attack;
#X obj 707 504 r decay;
#X obj 419 504 r peak_level;
#X obj 274 707 vline~;
#X msg 275 651 \$2 \$3 \, \$4 \$5 \$3 \, 0 \$6 \$7;
#X obj 276 533 bng 15 250 50 0 empty empty empty 17 7 0 10 -262144
-1 -1;
#X obj 593 504 r sustain_level;
#X floatatom 593 533 5 0 0 0 - - -;
#X floatatom 706 532 4 0 0 0 - - -;
#X obj 276 613 pack f f f f f f f;
#X obj 976 456 t b f;
#X obj 864 478 r sustain;
#X floatatom 864 504 5 0 0 0 - - -;
#X floatatom 777 532 5 0 0 0 - - -;
#X obj 777 504 r release;
#X obj 913 505 t b f;
#X obj 933 478 +;
#X obj 932 431 r attack;
#X obj 1007 403 r decay;
#X floatatom 932 455 5 0 0 0 - - -;
#X floatatom 994 431 5 0 0 0 - - -;
#X floatatom 864 558 5 0 0 0 - - -;
#X obj 864 531 +;
#X text 611 646 peak level \, attack sustain level \, decay \, delay
(=attack time) release level (=0) release \, delay (=attack + decay
+ sustain), f 62;
#X text 863 589 compute delay for the release \, i.e. sum of attack
\, decay \, sustain, f 35;
#X msg 369 672 1 300 \, 0.7 100 300 \, 0 100 550;
#X text 183 10 sound envelope;
#X msg 841 65 250;
#X msg 975 64 200;
#X obj 22 33 cnv 19 160 160 empty empty empty 20 12 0 12 -262130 -66577
0;
#X obj 32 55 inlet;
#X obj 32 100 bng 19 250 50 0 empty empty empty 0 -10 0 12 -262144
-1 -1;
#X obj 51 658 cnv 19 126 75 empty empty empty 20 12 0 12 -204800 -66577
0;
#X obj 72 679 osc~ 440;
#X text 49 638 frequency;
#X text 23 10 inlet;
#X msg 419 65 10;
#X obj 32 156 s start_noteCueOneSx;
#X obj 276 503 r start_noteCueOneSx;
#X connect 1 0 0 0;
#X connect 3 0 22 0;
#X connect 4 0 3 0;
#X connect 5 0 23 0;
#X connect 6 0 5 0;
#X connect 7 0 38 0;
#X connect 8 0 7 0;
#X connect 9 0 39 0;
#X connect 10 0 9 0;
#X connect 11 0 6 0;
#X connect 16 0 80 0;
#X connect 17 0 11 0;
#X connect 18 0 71 0;
#X connect 19 0 72 0;
#X connect 20 0 26 0;
#X connect 21 0 27 0;
#X connect 24 0 25 0;
#X connect 26 0 24 0;
#X connect 27 0 20 0;
#X connect 29 0 30 0;
#X connect 30 0 40 0;
#X connect 31 0 30 0;
#X connect 31 1 30 1;
#X connect 32 0 35 0;
#X connect 33 0 37 0;
#X connect 34 0 31 0;
#X connect 35 0 34 0;
#X connect 37 0 32 0;
#X connect 42 0 53 2;
#X connect 43 0 53 1;
#X connect 44 0 42 0;
#X connect 45 0 52 0;
#X connect 46 0 43 0;
#X connect 47 0 1 1;
#X connect 48 0 47 0;
#X connect 49 0 53 0;
#X connect 50 0 51 0;
#X connect 51 0 53 3;
#X connect 52 0 53 4;
#X connect 53 0 48 0;
#X connect 54 0 60 0;
#X connect 54 1 60 1;
#X connect 55 0 56 0;
#X connect 56 0 66 0;
#X connect 57 0 53 5;
#X connect 58 0 57 0;
#X connect 59 0 66 0;
#X connect 59 1 66 1;
#X connect 60 0 59 0;
#X connect 61 0 63 0;
#X connect 62 0 64 0;
#X connect 63 0 60 0;
#X connect 64 0 54 0;
#X connect 66 0 53 6;
#X connect 66 0 65 0;
#X connect 69 0 47 0;
#X connect 71 0 8 0;
#X connect 72 0 10 0;
#X connect 74 0 75 0;
#X connect 75 0 81 0;
#X connect 77 0 1 0;
#X connect 80 0 4 0;
#X connect 82 0 49 0;
#X restore 1377 302 pd CueOneSx;
#N canvas 1869 104 1920 966 CueTwoSx 0;
#X floatatom 1986 254 5 0 0 0 - - -;
#X obj 1986 117 vsl 15 128 0 1000 0 0 empty empty empty 0 -9 0 10 -262144
-1 -1 635 1;
#X floatatom 2121 253 5 0 0 0 - - -;
#X obj 2121 115 vsl 15 128 0 1000 0 0 empty empty empty 0 -9 0 10 -262144
-1 -1 635 1;
#X text 1984 67 Sustain;
#X text 2116 67 Release;
#X obj 1926 90 loadbang;
#X obj 2065 90 loadbang;
#X obj 1986 301 s sustain;
#X obj 2121 302 s release;
#X obj 2120 482 t b f;
#X obj 2008 504 r sustain;
#X floatatom 2008 530 5 0 0 0 - - -;
#X floatatom 1921 558 5 0 0 0 - - -;
#X obj 1921 530 r release;
#X obj 2057 531 t b f;
#X obj 2077 504 +;
#X obj 2076 457 r attack;
#X obj 2151 429 r decay;
#X floatatom 2076 481 5 0 0 0 - - -;
#X floatatom 2138 457 5 0 0 0 - - -;
#X floatatom 2008 595 5 0 0 0 - - -;
#X obj 2008 566 +, f 4;
#X text 2007 615 compute delay for the release \, i.e. sum of attack
\, decay \, sustain, f 35;
#X msg 2120 91 50;
#X msg 1986 91 50;
#X obj 266 827 outlet~;
#X obj 271 765 *~;
#X obj 187 31 cnv 19 950 700 empty empty empty 20 12 0 12 -203904 -66577
0;
#X floatatom 419 226 5 0 0 0 - - -;
#X obj 419 88 vsl 15 128 0 1000 0 0 empty empty empty 0 -9 0 10 -262144
-1 -1 635 1;
#X floatatom 712 228 5 0 0 0 - - -;
#X obj 712 91 vsl 15 128 0 1000 0 0 empty empty empty 0 -9 0 10 -262144
-1 -1 1270 1;
#X floatatom 842 228 5 0 0 0 - - -;
#X obj 842 91 vsl 15 128 0 1000 0 0 empty empty empty 0 -9 0 10 -262144
-1 -1 3175 1;
#X floatatom 977 227 5 0 0 0 - - -;
#X obj 977 89 vsl 15 128 0 1000 0 0 empty empty empty 0 -9 0 10 -262144
-1 -1 2540 1;
#X msg 712 65 100;
#X text 416 42 Attack;
#X text 708 41 Decay;
#X text 840 41 Sustain;
#X text 972 41 Release;
#X obj 361 65 loadbang;
#X obj 653 65 loadbang;
#X obj 782 64 loadbang;
#X obj 921 64 loadbang;
#X obj 270 90 vsl 15 128 0 200 0 0 empty empty empty 0 -9 0 10 -262144
-1 -1 6350 1;
#X obj 212 67 loadbang;
#X obj 419 276 s attack;
#X obj 712 272 s decay;
#X floatatom 270 250 5 0 0 0 - - -;
#X obj 270 276 s peak_level;
#X obj 270 227 / 100;
#X msg 270 67 100;
#X text 267 44 Peak level;
#X obj 473 305 r peak_level;
#X obj 569 340 *;
#X obj 563 305 t b f;
#X obj 564 88 vsl 15 128 0 100 0 0 empty empty empty 0 -9 0 10 -262144
-1 -1 8890 1;
#X obj 506 65 loadbang;
#X floatatom 564 248 5 0 0 0 - - -;
#X obj 564 225 / 100;
#X text 561 42 Sustain level;
#X msg 564 65 70;
#X obj 842 275 s sustain;
#X obj 977 276 s release;
#X obj 569 368 s sustain_level;
#X text 603 340 Percentage of peak level;
#X floatatom 523 528 5 0 0 0 - - -;
#X floatatom 419 532 5 0 0 0 - - -;
#X obj 523 503 r attack;
#X obj 707 504 r decay;
#X obj 419 504 r peak_level;
#X obj 274 707 vline~;
#X msg 275 651 \$2 \$3 \, \$4 \$5 \$3 \, 0 \$6 \$7;
#X obj 276 533 bng 15 250 50 0 empty empty empty 17 7 0 10 -262144
-1 -1;
#X obj 593 504 r sustain_level;
#X floatatom 593 533 5 0 0 0 - - -;
#X floatatom 706 532 4 0 0 0 - - -;
#X obj 276 613 pack f f f f f f f;
#X obj 976 456 t b f;
#X obj 864 478 r sustain;
#X floatatom 864 504 5 0 0 0 - - -;
#X floatatom 777 532 5 0 0 0 - - -;
#X obj 777 504 r release;
#X obj 913 505 t b f;
#X obj 933 478 +;
#X obj 932 431 r attack;
#X obj 1007 403 r decay;
#X floatatom 932 455 5 0 0 0 - - -;
#X floatatom 994 431 5 0 0 0 - - -;
#X floatatom 864 558 5 0 0 0 - - -;
#X obj 864 531 +;
#X text 611 646 peak level \, attack sustain level \, decay \, delay
(=attack time) release level (=0) release \, delay (=attack + decay
+ sustain), f 62;
#X text 863 589 compute delay for the release \, i.e. sum of attack
\, decay \, sustain, f 35;
#X msg 369 672 1 300 \, 0.7 100 300 \, 0 100 550;
#X text 183 10 sound envelope;
#X msg 841 65 250;
#X msg 975 64 200;
#X obj 22 33 cnv 19 160 160 empty empty empty 20 12 0 12 -262130 -66577
0;
#X obj 32 55 inlet;
#X obj 32 100 bng 19 250 50 0 empty empty empty 0 -10 0 12 -262144
-1 -1;
#X obj 51 658 cnv 19 126 75 empty empty empty 20 12 0 12 -204800 -66577
0;
#X obj 72 679 osc~ 440;
#X text 49 638 frequency;
#X text 23 10 inlet;
#X msg 419 65 50;
#X obj 32 156 s start_noteCueTwoSx;
#X obj 276 503 r start_noteCueTwoSx;
#X connect 0 0 8 0;
#X connect 1 0 0 0;
#X connect 2 0 9 0;
#X connect 3 0 2 0;
#X connect 6 0 25 0;
#X connect 7 0 24 0;
#X connect 10 0 16 0;
#X connect 10 1 16 1;
#X connect 11 0 12 0;
#X connect 12 0 22 0;
#X connect 14 0 13 0;
#X connect 15 0 22 0;
#X connect 15 1 22 1;
#X connect 16 0 15 0;
#X connect 17 0 19 0;
#X connect 18 0 20 0;
#X connect 19 0 16 0;
#X connect 20 0 10 0;
#X connect 22 0 21 0;
#X connect 24 0 3 0;
#X connect 25 0 1 0;
#X connect 27 0 26 0;
#X connect 29 0 48 0;
#X connect 30 0 29 0;
#X connect 31 0 49 0;
#X connect 32 0 31 0;
#X connect 33 0 64 0;
#X connect 34 0 33 0;
#X connect 35 0 65 0;
#X connect 36 0 35 0;
#X connect 37 0 32 0;
#X connect 42 0 106 0;
#X connect 43 0 37 0;
#X connect 44 0 97 0;
#X connect 45 0 98 0;
#X connect 46 0 52 0;
#X connect 47 0 53 0;
#X connect 50 0 51 0;
#X connect 52 0 50 0;
#X connect 53 0 46 0;
#X connect 55 0 56 0;
#X connect 56 0 66 0;
#X connect 57 0 56 0;
#X connect 57 1 56 1;
#X connect 58 0 61 0;
#X connect 59 0 63 0;
#X connect 60 0 57 0;
#X connect 61 0 60 0;
#X connect 63 0 58 0;
#X connect 68 0 79 2;
#X connect 69 0 79 1;
#X connect 70 0 68 0;
#X connect 71 0 78 0;
#X connect 72 0 69 0;
#X connect 73 0 27 1;
#X connect 74 0 73 0;
#X connect 75 0 79 0;
#X connect 76 0 77 0;
#X connect 77 0 79 3;
#X connect 78 0 79 4;
#X connect 79 0 74 0;
#X connect 80 0 86 0;
#X connect 80 1 86 1;
#X connect 81 0 82 0;
#X connect 82 0 92 0;
#X connect 83 0 79 5;
#X connect 84 0 83 0;
#X connect 85 0 92 0;
#X connect 85 1 92 1;
#X connect 86 0 85 0;
#X connect 87 0 89 0;
#X connect 88 0 90 0;
#X connect 89 0 86 0;
#X connect 90 0 80 0;
#X connect 92 0 79 6;
#X connect 92 0 91 0;
#X connect 95 0 73 0;
#X connect 97 0 34 0;
#X connect 98 0 36 0;
#X connect 100 0 101 0;
#X connect 101 0 107 0;
#X connect 103 0 27 0;
#X connect 106 0 30 0;
#X connect 108 0 75 0;
#X restore 1488 305 pd CueTwoSx;
#N canvas 1913 74 1920 966 CueOneDx 0;
#X obj 266 827 outlet~;
#X obj 271 765 *~;
#X obj 187 31 cnv 19 950 700 empty empty empty 20 12 0 12 -203904 -66577
0;
#X floatatom 419 226 5 0 0 0 - - -;
#X obj 419 88 vsl 15 128 0 1000 0 0 empty empty empty 0 -9 0 10 -262144
-1 -1 127 1;
#X floatatom 712 228 5 0 0 0 - - -;
#X obj 712 91 vsl 15 128 0 1000 0 0 empty empty empty 0 -9 0 10 -262144
-1 -1 1270 1;
#X floatatom 842 228 5 0 0 0 - - -;
#X obj 842 91 vsl 15 128 0 1000 0 0 empty empty empty 0 -9 0 10 -262144
-1 -1 3175 1;
#X floatatom 977 227 5 0 0 0 - - -;
#X obj 977 89 vsl 15 128 0 1000 0 0 empty empty empty 0 -9 0 10 -262144
-1 -1 2540 1;
#X msg 712 65 100;
#X text 416 42 Attack;
#X text 708 41 Decay;
#X text 840 41 Sustain;
#X text 972 41 Release;
#X obj 361 65 loadbang;
#X obj 653 65 loadbang;
#X obj 782 64 loadbang;
#X obj 921 64 loadbang;
#X obj 270 90 vsl 15 128 0 200 0 0 empty empty empty 0 -9 0 10 -262144
-1 -1 6350 1;
#X obj 212 67 loadbang;
#X obj 419 276 s attack;
#X obj 712 272 s decay;
#X floatatom 270 250 5 0 0 0 - - -;
#X obj 270 276 s peak_level;
#X obj 270 227 / 100;
#X msg 270 67 100;
#X text 267 44 Peak level;
#X obj 473 305 r peak_level;
#X obj 569 340 *;
#X obj 563 305 t b f;
#X obj 564 88 vsl 15 128 0 100 0 0 empty empty empty 0 -9 0 10 -262144
-1 -1 8890 1;
#X obj 506 65 loadbang;
#X floatatom 564 248 5 0 0 0 - - -;
#X obj 564 225 / 100;
#X text 561 42 Sustain level;
#X msg 564 65 70;
#X obj 842 275 s sustain;
#X obj 977 276 s release;
#X obj 569 368 s sustain_level;
#X text 603 340 Percentage of peak level;
#X floatatom 523 528 5 0 0 0 - - -;
#X floatatom 419 532 5 0 0 0 - - -;
#X obj 523 503 r attack;
#X obj 707 504 r decay;
#X obj 419 504 r peak_level;
#X obj 274 707 vline~;
#X msg 275 651 \$2 \$3 \, \$4 \$5 \$3 \, 0 \$6 \$7;
#X obj 276 533 bng 15 250 50 0 empty empty empty 17 7 0 10 -262144
-1 -1;
#X obj 593 504 r sustain_level;
#X floatatom 593 533 5 0 0 0 - - -;
#X floatatom 706 532 4 0 0 0 - - -;
#X obj 276 613 pack f f f f f f f;
#X obj 976 456 t b f;
#X obj 864 478 r sustain;
#X floatatom 864 504 5 0 0 0 - - -;
#X floatatom 777 532 5 0 0 0 - - -;
#X obj 777 504 r release;
#X obj 913 505 t b f;
#X obj 933 478 +;
#X obj 932 431 r attack;
#X obj 1007 403 r decay;
#X floatatom 932 455 5 0 0 0 - - -;
#X floatatom 994 431 5 0 0 0 - - -;
#X floatatom 864 558 5 0 0 0 - - -;
#X obj 864 531 +;
#X text 611 646 peak level \, attack sustain level \, decay \, delay
(=attack time) release level (=0) release \, delay (=attack + decay
+ sustain), f 62;
#X text 863 589 compute delay for the release \, i.e. sum of attack
\, decay \, sustain, f 35;
#X msg 369 672 1 300 \, 0.7 100 300 \, 0 100 550;
#X text 183 10 sound envelope;
#X msg 841 65 250;
#X msg 975 64 200;
#X obj 22 33 cnv 19 160 160 empty empty empty 20 12 0 12 -262130 -66577
0;
#X obj 32 55 inlet;
#X obj 32 100 bng 19 250 50 0 empty empty empty 0 -10 0 12 -262144
-1 -1;
#X obj 51 658 cnv 19 126 75 empty empty empty 20 12 0 12 -204800 -66577
0;
#X obj 72 679 osc~ 440;
#X text 49 638 frequency;
#X text 23 10 inlet;
#X msg 419 65 10;
#X obj 32 156 s start_noteCueOneDx;
#X obj 276 503 r start_noteCueOneDx;
#X connect 1 0 0 0;
#X connect 3 0 22 0;
#X connect 4 0 3 0;
#X connect 5 0 23 0;
#X connect 6 0 5 0;
#X connect 7 0 38 0;
#X connect 8 0 7 0;
#X connect 9 0 39 0;
#X connect 10 0 9 0;
#X connect 11 0 6 0;
#X connect 16 0 80 0;
#X connect 17 0 11 0;
#X connect 18 0 71 0;
#X connect 19 0 72 0;
#X connect 20 0 26 0;
#X connect 21 0 27 0;
#X connect 24 0 25 0;
#X connect 26 0 24 0;
#X connect 27 0 20 0;
#X connect 29 0 30 0;
#X connect 30 0 40 0;
#X connect 31 0 30 0;
#X connect 31 1 30 1;
#X connect 32 0 35 0;
#X connect 33 0 37 0;
#X connect 34 0 31 0;
#X connect 35 0 34 0;
#X connect 37 0 32 0;
#X connect 42 0 53 2;
#X connect 43 0 53 1;
#X connect 44 0 42 0;
#X connect 45 0 52 0;
#X connect 46 0 43 0;
#X connect 47 0 1 1;
#X connect 48 0 47 0;
#X connect 49 0 53 0;
#X connect 50 0 51 0;
#X connect 51 0 53 3;
#X connect 52 0 53 4;
#X connect 53 0 48 0;
#X connect 54 0 60 0;
#X connect 54 1 60 1;
#X connect 55 0 56 0;
#X connect 56 0 66 0;
#X connect 57 0 53 5;
#X connect 58 0 57 0;
#X connect 59 0 66 0;
#X connect 59 1 66 1;
#X connect 60 0 59 0;
#X connect 61 0 63 0;
#X connect 62 0 64 0;
#X connect 63 0 60 0;
#X connect 64 0 54 0;
#X connect 66 0 53 6;
#X connect 66 0 65 0;
#X connect 69 0 47 0;
#X connect 71 0 8 0;
#X connect 72 0 10 0;
#X connect 74 0 75 0;
#X connect 75 0 81 0;
#X connect 77 0 1 0;
#X connect 80 0 4 0;
#X connect 82 0 49 0;
#X restore 1601 305 pd CueOneDx;
#X obj 1375 349 dac~ 1;
#X connect 2 0 7 0;
#X connect 3 0 5 0;
#X connect 3 0 8 0;
#X connect 3 0 26 0;
#X connect 6 0 2 0;
#X connect 7 0 3 0;
#X connect 7 1 4 0;
#X connect 11 0 10 0;
#X connect 11 0 12 0;
#X connect 15 0 21 0;
#X connect 15 0 21 1;
#X connect 16 0 15 0;
#X connect 17 0 18 0;
#X connect 18 0 22 0;
#X connect 18 0 22 1;
#X connect 23 0 27 0;
#X connect 24 0 36 0;
#X connect 25 0 37 0;
#X connect 27 0 19 0;
#X connect 27 0 28 0;
#X connect 27 0 32 0;
#X connect 29 0 35 0;
#X connect 30 0 38 0;
#X connect 31 0 29 0;
#X connect 32 0 16 0;
#X connect 32 1 17 0;
#X connect 32 2 24 0;
#X connect 32 3 25 0;
#X connect 32 4 30 0;
#X connect 32 5 31 0;
#X connect 36 0 39 0;
#X connect 37 0 33 0;
#X connect 38 0 34 0;
#X coords 0 9840 10 9830 0 0 0;

