#N canvas 2357 27 2400 1296 10;
#X floatatom 1267 193 5 0 0 0 - - - 0;
#X obj 1267 55 vsl 15 128 0 1000 0 0 empty empty empty 0 -9 0 10 #fcfcfc
#000000 #000000 0 1;
#X floatatom 1415 195 5 0 0 0 - - - 0;
#X obj 1415 58 vsl 15 128 0 1000 0 0 empty empty empty 0 -9 0 10 #fcfcfc
#000000 #000000 0 1;
#X floatatom 1690 195 5 0 0 0 - - - 0;
#X obj 1690 58 vsl 15 128 0 1000 0 0 empty empty empty 0 -9 0 10 #fcfcfc
#000000 #000000 0 1;
#X floatatom 1825 194 5 0 0 0 - - - 0;
#X obj 1825 56 vsl 15 128 0 1000 0 0 empty empty empty 0 -9 0 10 #fcfcfc
#000000 #000000 0 1;
#X msg 1267 32 300;
#X msg 1415 32 100;
#X msg 1690 32 150;
#X msg 1824 32 100;
#X text 1264 9 Attack;
#X text 1411 8 Decay;
#X text 1688 8 Sustain;
#X text 1820 8 Release;
#X obj 1209 32 loadbang;
#X obj 1356 32 loadbang;
#X obj 1630 31 loadbang;
#X obj 1769 31 loadbang;
#X obj 1118 57 vsl 15 128 0 200 0 0 empty empty empty 0 -9 0 10 #fcfcfc
#000000 #000000 0 1;
#X obj 1060 34 loadbang;
#X obj 1267 243 s attack;
#X obj 1415 239 s decay;
#X floatatom 1118 217 5 0 0 0 - - - 0;
#X obj 1118 243 s peak_level;
#X obj 1118 194 / 100;
#X msg 1118 34 100;
#X text 1115 11 Peak level;
#X obj 1489 256 r peak_level;
#X obj 1489 304 *;
#X obj 1537 283 t b f;
#X obj 1537 55 vsl 15 128 0 100 0 0 empty empty empty 0 -9 0 10 #fcfcfc
#000000 #000000 0 1;
#X obj 1479 32 loadbang;
#X floatatom 1537 215 5 0 0 0 - - - 0;
#X obj 1537 192 / 100;
#X text 1534 9 Sustain level;
#X msg 1537 32 70;
#X obj 1690 242 s sustain;
#X obj 1825 243 s release;
#X obj 1489 327 s sustain_level;
#X text 1524 305 Percentage of peak level;
#X obj 1144 737 *~;
#X obj 1144 803 dac~ 1 2;
#X floatatom 1325 401 5 0 0 0 - - - 0;
#X floatatom 1275 356 5 0 0 0 - - - 0;
#X obj 1325 371 r attack;
#X obj 1406 449 r decay;
#X obj 1275 333 r peak_level;
#X obj 1228 308 r start_note;
#X floatatom 909 418 3 0 0 0 - - - 0;
#X obj 909 350 vradio 15 1 0 4 empty empty empty 0 -8 0 10 #dcdcdc
#000000 #000000 0;
#X text 875 349 none;
#X text 845 365 1st inlet;
#X text 845 380 2nd inlet;
#X text 845 394 3rd inlet;
#X obj 950 363 osc~ 432;
#X obj 1048 363 phasor~ 432;
#X obj 1157 363 noise~;
#X floatatom 950 334 5 0 0 0 - - - 0;
#X msg 950 308 432;
#X msg 991 307 864;
#X floatatom 1048 333 5 0 0 0 - - - 0;
#X msg 1048 307 432;
#X msg 1089 306 864;
#X obj 1315 653 vline~;
#X msg 1315 618 \$2 \$3 \, \$4 \$5 \$3 \, 0 \$6 \$7;
#X obj 1228 332 bng 15 250 50 0 empty empty empty 17 7 0 10 #fcfcfc
#000000 #000000;
#X obj 1377 401 r sustain_level;
#X floatatom 1377 427 5 0 0 0 - - - 0;
#X floatatom 1406 472 5 0 0 0 - - - 0;
#X obj 1315 590 pack f f f f f f f;
#X obj 1648 446 t b f;
#X obj 1518 438 r sustain;
#X floatatom 1518 463 5 0 0 0 - - - 0;
#X floatatom 1430 532 5 0 0 0 - - - 0;
#X obj 1430 500 r release;
#X obj 1600 507 t b f;
#X obj 1600 467 +;
#X obj 1600 373 r attack;
#X obj 1648 394 r decay;
#X floatatom 1600 402 5 0 0 0 - - - 0;
#X floatatom 1648 422 5 0 0 0 - - - 0;
#X floatatom 1518 555 5 0 0 0 - - - 0;
#X obj 1518 528 +;
#X msg 1111 588 1 300 \, 0.7 100 300 \, 0 100 550;
#X obj 909 443 selector~ 3 1;
#X obj 259 13 cnv 15 500 500 empty empty empty 20 12 0 14 #fcfcc4 #404040
0;
#X text 276 15 Receiver;
#X obj 283 84 mrpeach/unpackOSC;
#X floatatom 283 166 5 0 0 0 - - - 0;
#X obj 556 170 print warning_message_not_routed;
#X obj 264 202 print on_off;
#X obj 447 194 tgl 30 0 empty empty empty 17 7 0 10 #fcfcfc #000000
#000000 0 1;
#X obj 283 58 netreceive -u -b 5005;
#X msg 3 86 \; pd dsp \$1;
#X obj 3 14 tgl 30 0 empty empty empty 17 7 0 10 #9c9c9c #000000 #000000
0 1;
#X obj 12 66 s global_volume_fade;
#X text 43 19 <-Click to start/stop DSP;
#X obj 356 202 s start_note;
#X obj 283 124 mrpeach/routeOSC /start_note;
#X connect 0 0 22 0;
#X connect 1 0 0 0;
#X connect 2 0 23 0;
#X connect 3 0 2 0;
#X connect 4 0 38 0;
#X connect 5 0 4 0;
#X connect 6 0 39 0;
#X connect 7 0 6 0;
#X connect 8 0 1 0;
#X connect 9 0 3 0;
#X connect 10 0 5 0;
#X connect 11 0 7 0;
#X connect 16 0 8 0;
#X connect 17 0 9 0;
#X connect 18 0 10 0;
#X connect 19 0 11 0;
#X connect 20 0 26 0;
#X connect 21 0 27 0;
#X connect 24 0 25 0;
#X connect 26 0 24 0;
#X connect 27 0 20 0;
#X connect 29 0 30 0;
#X connect 30 0 40 0;
#X connect 31 0 30 0;
#X connect 31 1 30 1;
#X connect 32 0 35 0;
#X connect 33 0 37 0;
#X connect 34 0 31 0;
#X connect 35 0 34 0;
#X connect 37 0 32 0;
#X connect 42 0 43 0;
#X connect 42 0 43 1;
#X connect 44 0 71 2;
#X connect 45 0 71 1;
#X connect 46 0 44 0;
#X connect 47 0 70 0;
#X connect 48 0 45 0;
#X connect 49 0 67 0;
#X connect 50 0 86 0;
#X connect 51 0 50 0;
#X connect 56 0 86 1;
#X connect 57 0 86 2;
#X connect 58 0 86 3;
#X connect 59 0 56 0;
#X connect 60 0 59 0;
#X connect 61 0 59 0;
#X connect 62 0 57 0;
#X connect 63 0 62 0;
#X connect 64 0 62 0;
#X connect 65 0 42 1;
#X connect 66 0 65 0;
#X connect 67 0 71 0;
#X connect 68 0 69 0;
#X connect 69 0 71 3;
#X connect 70 0 71 4;
#X connect 71 0 66 0;
#X connect 72 0 78 0;
#X connect 72 1 78 1;
#X connect 73 0 74 0;
#X connect 74 0 84 0;
#X connect 75 0 71 5;
#X connect 76 0 75 0;
#X connect 77 0 84 0;
#X connect 77 1 84 1;
#X connect 78 0 77 0;
#X connect 79 0 81 0;
#X connect 80 0 82 0;
#X connect 81 0 78 0;
#X connect 82 0 72 0;
#X connect 84 0 71 6;
#X connect 84 0 83 0;
#X connect 85 0 65 0;
#X connect 86 0 42 0;
#X connect 89 0 100 0;
#X connect 90 0 92 0;
#X connect 90 0 93 0;
#X connect 90 0 99 0;
#X connect 94 0 89 0;
#X connect 96 0 95 0;
#X connect 96 0 97 0;
#X connect 100 0 90 0;
#X connect 100 1 91 0;
