#N canvas 691 23 775 859 12;
#X obj 131 78 r _a0;
#X floatatom 131 127 5 0 0 0 - - -;
#X floatatom 131 204 5 0 0 0 - - -;
#X obj 131 291 osc~ 432;
#X obj 131 556 dac~ 1 2;
#X obj 131 516 *~ 0.2;
#X obj 131 160 cyclone/scale 0 1 1000 5000 0.3;
#X floatatom 382 296 5 0 0 0 - - -;
#X floatatom 382 373 5 0 0 0 - - -;
#X obj 382 265 r _a1;
#X text 179 205 frequency;
#X text 440 376 amplitude;
#X obj 382 329 cyclone/scale 0 1 0.3 1.5 3;
#X connect 0 0 1 0;
#X connect 1 0 6 0;
#X connect 2 0 3 0;
#X connect 3 0 5 0;
#X connect 5 0 4 0;
#X connect 5 0 4 1;
#X connect 6 0 2 0;
#X connect 7 0 12 0;
#X connect 8 0 5 1;
#X connect 9 0 7 0;
#X connect 12 0 8 0;
