#N canvas -8 0 1920 1026 10;
#X msg 31 -104 close;
#X msg 20 -131 devices;
#X floatatom 80 -123 5 0 0 0 - - - 0;
#X msg 80 -104 open \$1;
#X obj 20 -17 s;
#X floatatom 20 63 5 0 0 0 - - - 0;
#X floatatom 60 63 5 0 0 0 - - - 0;
#X floatatom 101 63 5 0 0 0 - - - 0;
#X obj 20 39 unpack f f f;
#X obj 150 39 unpack f f f;
#X obj 150 62 tgl 15 0 empty empty empty 17 7 0 10 #fcfcfc #000000
#000000 0 1;
#X obj 190 62 tgl 15 0 empty empty empty 17 7 0 10 #fcfcfc #000000
#000000 0 1;
#X obj 231 62 tgl 15 0 empty empty empty 17 7 0 10 #fcfcfc #000000
#000000 0 1;
#X obj 150 15 r Digital_values:;
#X obj 20 -39 serial_print any;
#X obj 20 15 r Analog_values:;
#X obj 591 -77 unpack s f;
#X obj 589 -45 tgl 30 0 empty empty empty 17 7 0 10 #fcfcfc #000000
#000000 0 1;
#X text 591 -132 Data from digital sensors;
#X obj 297 -125 cnv 15 250 370 empty empty empty 20 12 0 14 #dcdcdc
#404040 0;
#X floatatom 314 24 5 0 0 0 - - - 0;
#X obj 314 47 s resolution;
#X msg 336 -2 4095;
#X msg 314 -31 1023;
#X obj 314 -58 loadbang;
#X text 375 -33 10-bit Arduino resolution;
#X text 375 -3 12-bit Teensy resolution;
#X text 313 -104 Configuration;
#X obj 20 -62 comport 1 115200;
#X msg 184 -115 3;
#X msg 15 127 \; pd dsp 1;
#X msg 15 186 \; pd dsp 0;
#X obj 15 286 dac~ 1 2;
#X obj 15 253 receive~ to_dac;
#X text 94 123 <-Click to start DSP;
#X text 94 185 <-Click to stop DSP;
#X floatatom 985 48 5 0 0 0 - - - 0;
#X obj 985 -90 vsl 15 128 0 1000 0 0 empty empty empty 0 -9 0 10 #fcfcfc
#000000 #000000 0 1;
#X floatatom 1133 50 5 0 0 0 - - - 0;
#X obj 1133 -87 vsl 15 128 0 1000 0 0 empty empty empty 0 -9 0 10 #fcfcfc
#000000 #000000 0 1;
#X floatatom 1408 50 5 0 0 0 - - - 0;
#X obj 1408 -87 vsl 15 128 0 1000 0 0 empty empty empty 0 -9 0 10 #fcfcfc
#000000 #000000 0 1;
#X floatatom 1543 49 5 0 0 0 - - - 0;
#X obj 1543 -89 vsl 15 128 0 1000 0 0 empty empty empty 0 -9 0 10 #fcfcfc
#000000 #000000 0 1;
#X msg 985 -113 300;
#X msg 1133 -113 100;
#X msg 1408 -113 150;
#X msg 1542 -113 100;
#X text 982 -136 Attack;
#X text 1129 -137 Decay;
#X text 1406 -137 Sustain;
#X text 1538 -137 Release;
#X obj 927 -113 loadbang;
#X obj 1074 -113 loadbang;
#X obj 1348 -114 loadbang;
#X obj 1487 -114 loadbang;
#X obj 836 -88 vsl 15 128 0 200 0 0 empty empty empty 0 -9 0 10 #fcfcfc
#000000 #000000 0 1;
#X obj 778 -111 loadbang;
#X obj 985 98 s attack;
#X obj 1133 94 s decay;
#X floatatom 836 72 5 0 0 0 - - - 0;
#X obj 836 98 s peak_level;
#X obj 836 49 / 100;
#X msg 836 -111 100;
#X text 833 -134 Peak level;
#X obj 1207 111 r peak_level;
#X obj 1207 159 *;
#X obj 1255 138 t b f;
#X obj 1255 -90 vsl 15 128 0 100 0 0 empty empty empty 0 -9 0 10 #fcfcfc
#000000 #000000 0 1;
#X obj 1197 -113 loadbang;
#X floatatom 1255 70 5 0 0 0 - - - 0;
#X obj 1255 47 / 100;
#X text 1252 -136 Sustain level;
#X msg 1255 -113 70;
#X obj 1408 97 s sustain;
#X obj 1543 98 s release;
#X obj 648 -19 s start_note;
#X obj 1207 182 s sustain_level;
#X text 1242 160 Percentage of peak level;
#X obj 862 592 *~;
#X obj 862 658 dac~ 1 2;
#X floatatom 1043 256 5 0 0 0 - - - 0;
#X floatatom 993 211 5 0 0 0 - - - 0;
#X obj 1043 226 r attack;
#X obj 1124 304 r decay;
#X obj 993 188 r peak_level;
#X obj 946 163 r start_note;
#X floatatom 627 273 3 0 0 0 - - - 0;
#X obj 627 205 vradio 15 1 0 4 empty empty empty 0 -8 0 10 #dcdcdc
#000000 #000000 0;
#X text 593 204 none;
#X text 563 220 1st inlet;
#X text 563 235 2nd inlet;
#X text 563 249 3rd inlet;
#X obj 668 218 osc~ 432;
#X obj 766 218 phasor~ 432;
#X obj 875 218 noise~;
#X floatatom 668 189 5 0 0 0 - - - 0;
#X msg 668 163 432;
#X msg 709 162 864;
#X floatatom 766 188 5 0 0 0 - - - 0;
#X msg 766 162 432;
#X msg 807 161 864;
#X obj 1033 508 vline~;
#X msg 1033 473 \$2 \$3 \, \$4 \$5 \$3 \, 0 \$6 \$7;
#X obj 946 187 bng 15 250 50 0 empty empty empty 17 7 0 10 #fcfcfc
#000000 #000000;
#X obj 1095 256 r sustain_level;
#X floatatom 1095 282 5 0 0 0 - - - 0;
#X floatatom 1124 327 5 0 0 0 - - - 0;
#X obj 1033 445 pack f f f f f f f;
#X obj 1366 301 t b f;
#X obj 1236 293 r sustain;
#X floatatom 1236 318 5 0 0 0 - - - 0;
#X floatatom 1148 387 5 0 0 0 - - - 0;
#X obj 1148 355 r release;
#X obj 1318 362 t b f;
#X obj 1318 322 +;
#X obj 1318 228 r attack;
#X obj 1366 249 r decay;
#X floatatom 1318 257 5 0 0 0 - - - 0;
#X floatatom 1366 277 5 0 0 0 - - - 0;
#X floatatom 1236 410 5 0 0 0 - - - 0;
#X obj 1236 383 +;
#X msg 829 443 1 300 \, 0.7 100 300 \, 0 100 550;
#X obj 627 298 selector~ 3 1;
#X obj 591 -111 r audio_stimulus_output;
#X obj 672 -41 s _audio_stimulus_state;
#X connect 0 0 28 0;
#X connect 1 0 28 0;
#X connect 2 0 3 0;
#X connect 3 0 28 0;
#X connect 8 0 5 0;
#X connect 8 1 6 0;
#X connect 8 2 7 0;
#X connect 9 0 10 0;
#X connect 9 1 11 0;
#X connect 9 2 12 0;
#X connect 13 0 9 0;
#X connect 14 0 4 0;
#X connect 14 1 4 1;
#X connect 15 0 8 0;
#X connect 16 1 17 0;
#X connect 16 1 76 0;
#X connect 16 1 125 0;
#X connect 20 0 21 0;
#X connect 22 0 20 0;
#X connect 23 0 20 0;
#X connect 24 0 23 0;
#X connect 28 0 14 0;
#X connect 29 0 2 0;
#X connect 33 0 32 0;
#X connect 33 0 32 1;
#X connect 36 0 58 0;
#X connect 37 0 36 0;
#X connect 38 0 59 0;
#X connect 39 0 38 0;
#X connect 40 0 74 0;
#X connect 41 0 40 0;
#X connect 42 0 75 0;
#X connect 43 0 42 0;
#X connect 44 0 37 0;
#X connect 45 0 39 0;
#X connect 46 0 41 0;
#X connect 47 0 43 0;
#X connect 52 0 44 0;
#X connect 53 0 45 0;
#X connect 54 0 46 0;
#X connect 55 0 47 0;
#X connect 56 0 62 0;
#X connect 57 0 63 0;
#X connect 60 0 61 0;
#X connect 62 0 60 0;
#X connect 63 0 56 0;
#X connect 65 0 66 0;
#X connect 66 0 77 0;
#X connect 67 0 66 0;
#X connect 67 1 66 1;
#X connect 68 0 71 0;
#X connect 69 0 73 0;
#X connect 70 0 67 0;
#X connect 71 0 70 0;
#X connect 73 0 68 0;
#X connect 79 0 80 0;
#X connect 79 0 80 1;
#X connect 81 0 108 2;
#X connect 82 0 108 1;
#X connect 83 0 81 0;
#X connect 84 0 107 0;
#X connect 85 0 82 0;
#X connect 86 0 104 0;
#X connect 87 0 123 0;
#X connect 88 0 87 0;
#X connect 93 0 123 1;
#X connect 94 0 123 2;
#X connect 95 0 123 3;
#X connect 96 0 93 0;
#X connect 97 0 96 0;
#X connect 98 0 96 0;
#X connect 99 0 94 0;
#X connect 100 0 99 0;
#X connect 101 0 99 0;
#X connect 102 0 79 1;
#X connect 103 0 102 0;
#X connect 104 0 108 0;
#X connect 105 0 106 0;
#X connect 106 0 108 3;
#X connect 107 0 108 4;
#X connect 108 0 103 0;
#X connect 109 0 115 0;
#X connect 109 1 115 1;
#X connect 110 0 111 0;
#X connect 111 0 121 0;
#X connect 112 0 108 5;
#X connect 113 0 112 0;
#X connect 114 0 121 0;
#X connect 114 1 121 1;
#X connect 115 0 114 0;
#X connect 116 0 118 0;
#X connect 117 0 119 0;
#X connect 118 0 115 0;
#X connect 119 0 109 0;
#X connect 121 0 108 6;
#X connect 121 0 120 0;
#X connect 122 0 102 0;
#X connect 123 0 79 0;
#X connect 124 0 16 0;
